<svg width="122" height="22" viewBox="0 0 122 22" fill="none" xmlns="http://www.w3.org/2000/svg">
<g id="159110 2" clip-path="url(#clip0_392_11840)">
<g id="surface1">
<g id="Clip path group">
<mask id="mask0_392_11840" style="mask-type:luminance" maskUnits="userSpaceOnUse" x="0" y="0" width="122" height="22">
<g id="clip1">
<path id="Vector" d="M0 0H121.463V21.3331H0V0Z" fill="white"/>
</g>
</mask>
<g mask="url(#mask0_392_11840)">
<g id="Group">
<path id="Vector_2" d="M121.462 21.333L118.382 2.98464C118.382 2.98464 118.265 2.19369 118.057 1.2949C117.724 -0.129036 116.775 0.0294781 114.561 0.0041373H110.015C106.569 0.0041373 106.602 -0.0206644 105.545 3.0515C103.98 7.60529 99.3422 21.333 99.3422 21.333H102.797C106.269 21.333 106.26 21.333 107.301 18.2781C107.368 18.078 107.709 17.0622 107.709 17.0622H113.936L114.644 21.333H121.462ZM112.971 11.5929H109.541L111.597 5.49877H111.947L112.971 11.5929ZM101.365 7.23057C102.839 2.06914 99.6587 -0.0120376 95.1136 0.0041373H88.4117C84.9487 0.0041373 84.9487 0.00413721 83.9243 3.0515L77.7471 21.3249H94.314C97.8353 21.175 99.2091 18.9935 99.9083 17.0126C100.999 13.8822 100.325 11.8674 99.126 10.6688C100.216 9.94472 100.933 8.77042 101.365 7.23057ZM91.4834 13.3997C93.24 13.3997 94.1393 13.7156 93.6314 15.2307C93.1904 16.5463 92.3913 17.0622 90.9426 17.0622C90.934 17.0709 91.8414 17.0622 86.089 17.0622L87.3296 13.3997H91.4834ZM95.6295 7.3136C95.2381 8.62916 94.6973 8.82919 93.0318 8.82919H88.8862L90.0184 5.46588L94.1641 5.47397C95.1632 5.47397 96.0792 5.83197 95.6295 7.3136ZM81.2106 5.48205L83.0589 0.0041373C81.2603 0.0041373 80.4612 0.0041373 79.5953 0.0041373C76.1403 0.0041373 76.149 0.00413721 75.1246 3.0515L68.9312 21.333H72.3856C75.8411 21.333 75.8411 21.3249 76.8817 18.2781L81.2106 5.48205ZM71.8114 7.95466C73.0272 2.36029 70.03 0.0041373 65.4762 0.0041373H58.783C55.328 0.0041373 55.3194 0.0127638 54.2955 3.0515L48.1102 21.333H51.5733C55.0283 21.333 55.0283 21.333 56.0608 18.2781L60.3978 5.47397C60.3978 5.47397 63.4781 5.47397 64.5855 5.47397C65.1101 5.47397 66.6748 5.60714 66.2752 6.93942C65.7593 8.67068 65.1182 8.82056 63.4446 8.82056H61.3386L59.4737 14.3319L60.6561 21.333H67.449L66.1421 13.4746C69.5636 13.1581 71.3617 10.003 71.8114 7.95466ZM53.1881 2.44386L54.0125 0.0041373H40.1678C36.7128 -0.00395018 36.7128 0.00413721 35.6809 3.0515L29.5036 21.333H43.3483C46.8033 21.333 46.8033 21.333 47.8353 18.2861L48.6764 15.8383H38.278L39.3186 12.7834H47.5441L49.2592 7.84683H40.9841L41.7831 5.47397H48.7092C52.1642 5.47397 52.1642 5.47397 53.1881 2.44386ZM32.5009 5.47397L34.3486 0.0041373H16.7163C13.4198 0.0041373 13.3282 -0.0373785 11.405 2.99327C11.047 3.56748 9.84839 5.47397 9.84839 5.47397H32.5009ZM31.6846 7.84683H8.37485L4.92797 13.3911H29.8282L31.6846 7.84683ZM28.9958 15.8383H3.40483L0 21.333H24.209C27.1475 21.333 27.1475 21.333 28.1714 18.2861L28.9958 15.8383Z" fill="white"/>
<path id="Vector_3" d="M29.5042 21.3279L35.6814 3.04584C36.6886 0.082594 36.7134 -0.000976562 39.8934 -0.000976562C39.985 -0.000976562 40.0767 -0.000976562 40.1683 -0.000976562H54.013L53.1886 2.44683C52.1648 5.47694 52.1648 5.47694 48.7098 5.47694H41.7837L40.9841 7.8498H49.2592L47.5441 12.7783H39.3191L38.2786 15.8418H48.6764L47.8358 18.281C46.8033 21.3279 46.8033 21.3279 43.3483 21.3279H29.5042ZM9.84839 5.47694C9.84839 5.47694 11.0475 3.56236 11.4055 2.99624C13.2786 0.0405391 13.4117 -0.000976562 16.4753 -0.000976562C16.5502 -0.000976562 16.6332 -0.000976562 16.7249 -0.000976562H34.3491L32.5009 5.47694H9.84839ZM77.7476 21.3198L83.9248 3.05447C84.9487 0.00765008 84.9487 0.00765008 88.4117 -0.000976562L95.1136 0.00765008C95.1303 0.00765008 95.147 0.00765008 95.1637 0.00765008C99.6841 0.00765008 102.839 2.08883 101.366 7.23354C100.933 8.77393 100.217 9.9477 99.1266 10.6718C100.325 11.8709 100.999 13.8852 99.9089 17.0156C99.2177 18.9884 97.8358 21.1699 94.3145 21.3198H77.7476ZM83.0589 -0.000976562L81.2193 5.48557H81.2106L76.8817 18.281C75.8411 21.3279 75.8411 21.3279 72.3861 21.3279H68.9312L75.1251 3.05447C76.149 0.00765008 76.1409 -0.000976562 79.5958 -0.000976562C80.1701 -0.000976562 80.7195 -0.000976562 81.5519 -0.000976562C81.9682 -0.000976562 82.4594 -0.000976562 83.0589 -0.000976562ZM48.1102 21.3279L54.2961 3.05447C55.3199 0.00765008 55.328 -0.000976562 58.783 -0.000976562H65.4767C70.03 -0.000976562 73.0272 2.36326 71.8119 7.94955C71.3703 10.0059 69.5641 13.1611 66.1426 13.4776L67.4495 21.3279H60.6561L59.4742 14.3268L61.3386 8.82354H63.4452C65.1182 8.82354 65.7598 8.67365 66.2758 6.94239C66.6753 5.61011 65.1101 5.47694 64.5855 5.47694C63.4786 5.47694 60.3983 5.47694 60.3983 5.47694L56.0608 18.281C55.0288 21.3279 55.0288 21.3279 51.5738 21.3279H48.1102ZM99.3428 21.3279C99.3428 21.3279 103.98 7.60826 105.545 3.04584C106.602 -0.0257782 106.569 0.00765008 110.016 0.00765008H114.561C116.775 0.0324516 117.725 -0.125524 118.057 1.28978C118.265 2.1972 118.382 2.98761 118.382 2.98761L121.462 21.3279H114.644L113.936 17.0658H107.71C107.71 17.0658 107.368 18.0729 107.301 18.281C106.261 21.3359 106.269 21.3279 102.798 21.3279H99.3428ZM31.6851 7.8498L29.8288 13.394H4.92851L8.37485 7.8498H31.6851ZM28.9963 15.8418L28.1719 18.2891C27.148 21.3359 27.148 21.3279 24.209 21.3279H0L3.40483 15.8418H28.9963ZM90.0184 5.46885L88.8862 8.83216H93.0324C94.6973 8.83216 95.2386 8.63213 95.6295 7.31711C96.0792 5.83495 95.1637 5.47694 94.1646 5.46885H90.0184ZM111.955 5.50174H111.597L109.541 11.5959H112.979L111.955 5.50174ZM91.4839 13.4027H87.3383L86.0896 17.0658C89.9187 17.0658 90.8013 17.0658 90.9593 17.0658C91.0342 17.0658 90.9345 17.0658 90.9426 17.0658C92.3913 17.0658 93.1904 16.5411 93.6314 15.2256C94.1393 13.7186 93.2405 13.4027 91.4839 13.4027Z" fill="white"/>
<path id="Vector_4" d="M39.8934 0.00391251C36.7128 0.00391251 36.688 0.0874831 35.6809 3.05127L29.5036 21.3327H43.3483C46.8033 21.3327 46.8033 21.3327 47.8353 18.2859L48.6764 15.8381H38.278L39.3186 12.7832H47.5441L49.2592 7.84661H40.9841L41.7831 5.47374H48.7092C52.1642 5.47374 52.1642 5.47374 53.1881 2.44363L54.0125 0.00391251H40.1678C40.0767 0.00391251 39.985 0.00391251 39.8934 0.00391251ZM16.4747 0.00391251C13.4112 0.00391251 13.278 0.0373408 11.405 2.99304C11.047 3.56725 9.84839 5.47374 9.84839 5.47374H32.5009L34.3486 0.00391251H16.7163C16.6332 0.00391251 16.5497 0.00391251 16.4747 0.00391251ZM88.4117 0.00391251C84.9487 0.00391251 84.9487 0.00391257 83.9243 3.05127L77.7471 21.3247H94.314C97.8353 21.1748 99.2177 18.9933 99.9083 17.0124C100.999 13.882 100.325 11.8672 99.126 10.6686C100.216 9.9445 100.933 8.7702 101.365 7.23034C102.831 2.08563 99.6841 0.00391251 95.1632 0.00391251C95.1464 0.00391251 95.1297 0.00391251 95.1136 0.00391251H88.4117ZM88.8862 8.83705L90.0184 5.46565L94.1641 5.47374C95.1632 5.47374 96.0792 5.83175 95.6295 7.31337C95.2381 8.62893 94.6973 8.83705 93.0318 8.83705H88.8862ZM90.9593 17.0706C90.8008 17.0706 89.9187 17.062 86.089 17.062L87.3296 13.3995H91.4834C93.24 13.3995 94.1393 13.7154 93.6314 15.2305C93.1904 16.546 92.3913 17.062 90.9426 17.062C90.934 17.0706 91.0342 17.0706 90.9593 17.0706ZM83.0589 0.00391251C82.4594 0.00391251 81.9682 0.00391251 81.5519 0.00391251C80.7195 0.00391251 80.1701 0.00391251 79.5953 0.00391251C76.1403 0.00391251 76.149 0.00391257 75.1246 3.05127L68.9312 21.3327H72.3856C75.8411 21.3327 75.8411 21.3247 76.8817 18.2778L81.2106 5.49046L83.0589 0.00391251ZM65.4762 0.00391251H58.783C55.328 0.00391251 55.3194 0.0125392 54.2955 3.05127L48.1102 21.3327H51.5733C55.0283 21.3327 55.0283 21.3327 56.0608 18.2778L60.3978 5.47374C60.3978 5.47374 63.4781 5.47374 64.5855 5.47374C65.1101 5.47374 66.6748 5.60691 66.2752 6.93919C65.7593 8.67045 65.1182 8.82034 63.4446 8.82034H61.3386L59.4737 14.3317L60.6561 21.3327H67.449L66.1421 13.4744C69.5636 13.1579 71.3617 10.0027 71.8114 7.95444C73.0272 2.36006 70.03 0.00391251 65.4762 0.00391251ZM114.561 0.00391251H110.015C106.569 0.00391251 106.602 -0.020889 105.545 3.05127C103.98 7.60506 99.3422 21.3327 99.3422 21.3327H102.797C106.269 21.3327 106.26 21.3327 107.301 18.2778C107.368 18.0778 107.709 17.062 107.709 17.062H113.936L114.644 21.3327H121.462L118.382 2.98442C118.382 2.98442 118.265 2.19346 118.057 1.29467C117.724 -0.129261 116.775 0.0292533 114.561 0.00391251ZM109.541 11.5927L111.597 5.49854H111.947L112.979 11.5927H109.541ZM31.6846 7.84661H8.37485L4.92797 13.3908H29.8282L31.6846 7.84661ZM28.9958 15.8381H3.40483L0 21.3327H24.209C27.1475 21.3327 27.1475 21.3327 28.1714 18.2859L28.9958 15.8381Z" fill="white"/>
</g>
</g>
</g>
</g>
</g>
<defs>
<clipPath id="clip0_392_11840">
<rect width="121.463" height="21.3333" fill="white"/>
</clipPath>
</defs>
</svg>
