<svg width="96" height="54" viewBox="0 0 96 54" fill="none" xmlns="http://www.w3.org/2000/svg">
<path d="M4.24199 30.1914C7.83348 30.4659 9.32816 29.5615 9.32816 28.0645C9.32816 27.1884 8.54045 26.6272 7.30908 26.6272C6.46981 26.6272 5.84104 26.829 4.97513 27.4032L4.24199 30.1914ZM5.36899 25.8223C6.60083 25.2466 7.46595 25.0455 8.59406 25.0455C11.1364 25.0455 13.0243 26.297 13.0243 27.9781C13.0243 29.8045 10.7957 31.8168 5.36899 31.8168C3.14036 31.8168 1.35778 31.7014 0.361328 31.6012L2.85183 21.8828H6.3913L5.36899 25.8223ZM20.0495 23.0908C20.0495 23.6084 19.2897 24.0388 18.3459 24.0388C17.4021 24.0388 16.6152 23.6084 16.6152 23.0908C16.6152 22.5739 17.4021 22.1565 18.3459 22.1565C19.2897 22.1565 20.0495 22.5739 20.0495 23.0908ZM27.3048 23.0908C27.3048 23.6084 26.5458 24.0388 25.5996 24.0388C24.6566 24.0388 23.8697 23.6084 23.8697 23.0908C23.8697 22.5739 24.6566 22.1565 25.5996 22.1565C26.5458 22.1565 27.3048 22.5739 27.3048 23.0908ZM25.6617 31.6868H22.1209L22.3313 30.9536C21.1513 31.501 19.7606 31.8022 18.4769 31.8022C15.7502 31.8022 14.7016 30.6669 15.0686 29.3L16.1433 25.1609H19.6832L18.7918 28.6257C18.4506 29.9345 18.8963 30.3657 19.7348 30.3657C20.6523 30.3657 21.6746 30.0331 22.7248 29.4162L23.7987 25.1609H27.3389L25.6617 31.6868ZM33.7805 26.0952L33.8329 26.1235C34.9338 25.3765 35.8519 25.0455 36.7175 25.0455C37.4239 25.0455 38.0284 25.2466 38.8421 25.765L37.1893 27.5623C36.5867 27.073 36.0853 26.9208 35.512 26.8566C34.6942 26.7648 33.8995 26.8413 33.5067 27.2724L32.3662 31.6867H28.826L30.5044 25.1608H34.0432L33.7805 26.0952ZM47.1218 26.7266C45.8149 26.6861 44.0834 26.6272 43.4816 26.6272C43.0095 26.6272 42.6939 26.7426 42.6939 26.9147C42.6939 27.6333 46.6532 28.1792 46.6532 29.7602C46.6532 30.9536 44.7966 31.8825 42.173 31.8825C40.7587 31.8825 39.7197 31.8045 38.137 31.6486L38.5731 29.9299C39.5683 30.1302 40.7018 30.2204 41.8296 30.2204C42.537 30.2204 42.9821 30.0774 42.9821 29.861C42.9821 29.1577 38.9983 28.4528 38.9983 27.1593C38.9983 25.9086 40.7882 25.0852 43.4545 25.0454C44.7134 25.0279 46.171 25.047 47.5962 25.1639L47.1218 26.7266ZM54.822 25.1609H57.6015L57.13 26.5983H54.508L53.8275 28.7129C53.5914 29.4453 53.8489 29.852 54.7976 30.0776C55.2563 30.1869 55.5909 30.1632 56.5797 30.3199L56.0261 31.9223C54.8387 32.0782 53.8154 32.0951 52.7815 31.9223C50.4458 31.5309 49.7378 30.4513 50.1825 29.086L51.0221 26.5983H48.6103L49.0554 25.1609H51.4672L52.2429 21.9256H55.6764L54.822 25.1609ZM63.6091 25.8942C65.05 25.2909 66.2313 25.0455 67.6738 25.0455C70.4252 25.0455 71.1595 26.3108 70.8196 27.6487L69.7963 31.6868H66.257L67.2536 27.7916C67.411 27.1594 67.147 26.4836 66.205 26.4836C65.392 26.4836 64.4227 26.7849 63.2146 27.4898L62.1403 31.687H58.6013L60.2789 25.1611H63.8179L63.6091 25.8942ZM80.6506 27.5753C80.8582 26.8712 80.1523 26.3834 78.946 26.3834C77.7911 26.3834 77.0063 26.7573 76.4803 27.5753H80.6506ZM76.1405 28.6976C75.9568 29.7602 77.1622 30.3794 78.8677 30.3794C79.9683 30.3794 80.9989 30.5545 83.0188 30.3198L82.5845 31.8824C81.0798 32.0781 79.6187 32.0544 78.3882 32.0001C74.826 31.8442 72.5747 30.5651 72.5747 28.6401C72.5747 26.6416 75.4331 25.0454 79.0255 25.0454C82.7459 25.0454 84.7658 26.6127 83.9262 28.6974H76.1405V28.6976ZM90.5793 26.0952L90.6319 26.1235C91.7324 25.3765 92.6494 25.0455 93.5169 25.0455C94.2226 25.0455 94.8252 25.2466 95.6385 25.765L93.9872 27.5623C93.3837 27.073 92.8874 26.8566 92.3097 26.8566C91.4707 26.8566 90.5531 27.375 90.1596 27.806L89.1636 31.6867H85.6255L87.3015 25.1608H90.8402L90.5793 26.0952Z" fill="#9A9AAC"/>
<path d="M55.5544 20.6451H3.07031C5.95816 8.98573 16.6105 0.333008 29.3117 0.333008C42.0127 0.333008 52.6664 8.98573 55.5544 20.6451ZM3.12107 33.563C6.08442 45.1162 16.6863 53.6663 29.3117 53.6663C41.9375 53.6663 52.5387 45.1162 55.5008 33.563H3.12107Z" fill="#9A9AAC"/>
</svg>
