<svg width="96" height="54" viewBox="0 0 96 54" fill="none" xmlns="http://www.w3.org/2000/svg">
<path d="M73.9018 25.4896C73.9054 24.8989 73.847 24.3161 73.6657 23.7524C73.4777 23.1675 73.2049 22.6356 72.6817 22.2687C72.2314 21.9529 71.7212 21.8605 71.1884 21.8494C70.3448 21.8316 69.5645 22.0217 68.8956 22.5656C68.123 23.194 67.5892 23.9931 67.217 24.909C66.8339 25.851 66.6294 26.8332 66.5433 27.8432C66.4719 28.6775 66.4907 29.5064 66.7365 30.3132C66.9239 30.9283 67.2006 31.5046 67.8068 31.8054C68.8804 32.3378 69.9724 32.277 71.0082 31.72C71.8717 31.2559 72.4564 30.4937 72.9121 29.6386C73.6015 28.3425 73.863 26.9418 73.9018 25.4896ZM74.8746 21.1C75.4082 18.5725 75.9328 16.0882 76.4577 13.6006H80.5089C79.0013 20.6981 77.4959 27.7838 75.9902 34.8732H71.9405C72.0526 34.3367 72.1629 33.8097 72.2613 33.3376C72.0575 33.5236 71.8285 33.7421 71.5888 33.9481C70.8323 34.5984 69.9418 34.9641 68.9713 35.1465C67.972 35.3337 66.9736 35.3233 65.9964 35.0254C64.7976 34.6602 63.8901 33.9049 63.2601 32.8308C62.5823 31.6747 62.3683 30.3919 62.3731 29.0763C62.3804 27.1277 62.7617 25.2518 63.619 23.4904C64.4317 21.8207 65.6083 20.4784 67.2411 19.5644C68.0796 19.0948 68.989 18.8519 69.9446 18.7706C70.6425 18.711 71.3355 18.7158 72.0237 18.868C73.2416 19.1372 74.1382 19.8353 74.7613 20.9034C74.7909 20.955 74.8211 21.0071 74.8746 21.1Z" fill="#9A9AAC"/>
<path d="M56.1048 27.5811C56.0457 27.5811 56.0095 27.5765 55.9747 27.5818C54.9718 27.728 53.9647 27.852 52.967 28.0298C52.1252 28.1798 51.298 28.4034 50.5411 28.8256C49.8766 29.1961 49.4286 29.7132 49.3929 30.5133C49.3553 31.3622 49.6836 31.9505 50.4866 32.2368C51.0216 32.4274 51.5689 32.4028 52.1182 32.3454C52.9412 32.259 53.6926 31.991 54.3009 31.4109C55.3879 30.3742 55.8353 29.0313 56.1048 27.5811ZM58.7152 34.8794C57.4582 34.8794 56.2292 34.8794 55.0002 34.8791C54.9763 34.8791 54.9529 34.8724 54.9124 34.8661C55.0429 34.217 55.1722 33.5727 55.3017 32.9284C55.2865 32.9178 55.2714 32.9072 55.2564 32.8966C55.0506 33.11 54.8548 33.3346 54.6372 33.5355C53.4555 34.6251 52.0451 35.157 50.4509 35.2467C49.3929 35.3063 48.3861 35.144 47.4265 34.6743C45.8844 33.9198 44.9994 32.3213 45.1844 30.6108C45.278 29.7451 45.5508 28.9558 46.1078 28.2785C46.5292 27.7661 47.055 27.3824 47.627 27.0538C48.829 26.364 50.1383 25.9826 51.4833 25.7057C53.0835 25.3764 54.7028 25.1789 56.3298 25.0409C56.4716 25.0288 56.5401 24.982 56.5717 24.8344C56.6875 24.2953 56.8002 23.7554 56.7435 23.2004C56.6665 22.4432 56.2164 21.9644 55.521 21.7517C54.2754 21.371 53.0464 21.4195 51.8777 22.0505C51.1454 22.4461 50.6998 23.0595 50.5411 23.8787C50.5298 23.9378 50.5143 23.9959 50.4987 24.0623H46.7246C46.7723 23.8785 46.809 23.7016 46.8643 23.5311C47.3175 22.1282 48.1535 21.0075 49.3589 20.1601C50.5742 19.3052 51.9358 18.8619 53.4048 18.7302C54.7127 18.6127 56.0075 18.6964 57.2725 19.0655C58.3143 19.3699 59.2372 19.8733 59.9078 20.7603C60.388 21.3956 60.6447 22.1157 60.7248 22.9064C60.8311 23.9559 60.5877 24.9581 60.3453 25.9638C59.7961 28.244 59.2413 30.5225 58.8628 32.8392C58.7523 33.5085 58.6551 34.1796 58.7152 34.8794Z" fill="#9A9AAC"/>
<path d="M91.6782 25.8698C91.6847 25.0149 91.6384 24.4186 91.4585 23.8409C91.1902 22.979 90.6753 22.3374 89.7876 22.0622C89.1192 21.8547 88.4344 21.8538 87.7587 22.0236C86.6498 22.3029 85.8541 23.0135 85.232 23.9374C84.6246 24.8398 84.2876 25.85 84.1197 26.9174C83.9538 27.97 83.9067 29.0251 84.194 30.0652C84.4673 31.0549 85.0624 31.7525 86.0931 32.0027C86.7557 32.1638 87.4198 32.1192 88.0665 31.9173C89.2943 31.5347 90.1229 30.681 90.7233 29.5838C91.3982 28.3504 91.6594 27.0114 91.6782 25.8698ZM89.077 18.7119C90.2469 18.7271 91.3854 18.8928 92.4518 19.3892C93.9847 20.1028 94.9986 21.2727 95.4542 22.91C95.804 24.1668 95.8332 25.445 95.6696 26.7292C95.4651 28.3297 94.9974 29.8438 94.1058 31.204C92.7044 33.3412 90.7662 34.6949 88.232 35.1233C86.775 35.3698 85.3128 35.3421 83.8988 34.8661C81.8588 34.1796 80.5813 32.7806 80.1182 30.6644C79.8562 29.467 79.8572 28.2614 80.0345 27.0541C80.2844 25.349 80.8259 23.7509 81.8629 22.3562C83.3186 20.3987 85.2298 19.1736 87.6716 18.8405C88.1372 18.777 88.6083 18.7536 89.077 18.7119Z" fill="#9A9AAC"/>
<path d="M12.207 24.8307C12.1255 24.4474 12.0871 24.0651 11.9609 23.7143C11.6047 22.7237 10.8555 22.1628 9.84283 21.9773C8.99737 21.8225 8.16252 21.905 7.37471 22.2861C6.34303 22.7849 5.59067 23.5682 5.11355 24.5984C4.36047 26.2242 4.20031 27.933 4.52088 29.6847C4.78453 31.1259 5.85698 32.0278 7.32285 32.0867C9.16453 32.1612 10.7428 31.1368 11.4129 29.4227C11.4672 29.2843 11.5321 29.2428 11.6768 29.2435C12.8204 29.2498 13.964 29.2469 15.1076 29.2473C15.1723 29.2473 15.2374 29.2529 15.3491 29.2577C15.1783 29.6984 15.0406 30.1215 14.8548 30.5227C13.9216 32.5387 12.4226 33.9704 10.3221 34.7017C8.21559 35.4357 6.08058 35.5223 3.97911 34.6631C2.13767 33.9098 1.01095 32.5112 0.487028 30.6114C0.205047 29.5899 0.191056 28.549 0.290437 27.5005C0.423588 26.0983 0.779864 24.7595 1.44176 23.5144C2.79354 20.9707 4.87282 19.3954 7.71965 18.876C8.95443 18.6507 10.1962 18.6527 11.4122 18.9788C13.7242 19.598 15.1976 21.0745 15.7787 23.4061C15.8933 23.8646 15.9323 24.342 16.0095 24.8307H12.207Z" fill="#9A9AAC"/>
<path d="M37.3353 34.8739H33.2969C33.3671 34.5379 33.4339 34.2123 33.5034 33.8871C34.3315 30.0122 35.1595 26.1371 35.9884 22.2622C36.2055 21.2474 36.4252 20.2328 36.6396 19.2173C36.6587 19.1254 36.6848 19.0789 36.7892 19.0791C38.0491 19.082 39.3085 19.0813 40.5683 19.0822C40.591 19.0822 40.6137 19.0907 40.6561 19.0991C40.4784 19.8814 40.3023 20.6562 40.1262 21.431C41.5947 19.7246 43.432 18.9703 45.6816 19.1749C45.4066 20.4509 45.1358 21.7088 44.861 22.9841C44.6825 22.9668 44.5088 22.9436 44.3342 22.9342C43.5584 22.8935 42.7861 22.8691 42.0176 23.0495C41.0539 23.2758 40.3536 23.8366 39.8497 24.6683C39.3864 25.4332 39.1809 26.2874 38.9971 27.1497C38.4582 29.6815 37.9159 32.2131 37.3746 34.7444C37.366 34.7859 37.3503 34.8262 37.3353 34.8739Z" fill="#9A9AAC"/>
<path d="M71.6537 12.2932C63.523 4.86497 52.7011 0.333008 40.8202 0.333008C28.9391 0.333008 18.1172 4.86497 9.98633 12.2932H71.6537Z" fill="#9A9AAC"/>
<path d="M86.0367 41.7061C77.9058 49.1343 67.0841 53.666 55.2033 53.666C43.3222 53.666 32.5 49.1343 24.3691 41.7061H86.0367Z" fill="#9A9AAC"/>
<path d="M28.1911 27.5811C28.132 27.5811 28.0958 27.5765 28.0609 27.5818C27.0579 27.728 26.0508 27.852 25.0531 28.0298C24.2115 28.1798 23.3846 28.4034 22.6275 28.8256C21.9632 29.1961 21.515 29.7132 21.4795 30.5133C21.4416 31.3622 21.7699 31.9505 22.5732 32.2368C23.108 32.4274 23.6555 32.4028 24.2048 32.3454C25.0278 32.259 25.779 31.991 26.3871 31.4109C27.474 30.3742 27.9217 29.0313 28.1911 27.5811ZM30.8013 34.8794C29.5443 34.8794 28.3153 34.8794 27.0861 34.8791C27.0622 34.8791 27.0388 34.8724 26.9983 34.8661C27.1288 34.217 27.2581 33.5727 27.3876 32.9284C27.3727 32.9178 27.3575 32.9072 27.3423 32.8966C27.1365 33.11 26.9406 33.3346 26.7231 33.5355C25.5414 34.6251 24.1307 35.157 22.5368 35.2467C21.4788 35.3063 20.472 35.144 19.5126 34.6743C17.9706 33.9198 17.0855 32.3213 17.2703 30.6108C17.3639 29.7451 17.6367 28.9558 18.1937 28.2785C18.6151 27.7661 19.1409 27.3824 19.7126 27.0538C20.9148 26.364 22.2242 25.9826 23.5692 25.7057C25.1694 25.3764 26.7887 25.1789 28.4154 25.0409C28.557 25.0288 28.6258 24.982 28.6574 24.8344C28.7732 24.2953 28.8858 23.7554 28.8289 23.2004C28.7517 22.4432 28.3021 21.9644 27.6064 21.7517C26.3608 21.371 25.132 21.4195 23.9631 22.0505C23.2305 22.4461 22.7852 23.0595 22.6267 23.8787C22.6152 23.9378 22.5997 23.9959 22.5843 24.0623H18.8097C18.8575 23.8785 18.8944 23.7016 18.9494 23.5311C19.4029 22.1282 20.2389 21.0075 21.4441 20.1601C22.6595 19.3052 24.021 18.8619 25.49 18.7302C26.7978 18.6127 28.0929 18.6964 29.3576 19.0655C30.3997 19.3699 31.3226 19.8733 31.9929 20.7603C32.4734 21.3956 32.7301 22.1157 32.8099 22.9064C32.9161 23.9559 32.6727 24.9581 32.4302 25.9638C31.8812 28.244 31.3262 30.5225 30.9477 32.8392C30.8387 33.5085 30.7412 34.1796 30.8013 34.8794Z" fill="#9A9AAC"/>
</svg>
