<svg width="40" height="40" viewBox="0 0 40 40" fill="none" xmlns="http://www.w3.org/2000/svg">
<g id="Outline / Essentional, UI / Cup">
<path id="Vector" fill-rule="evenodd" clip-rule="evenodd" d="M20.0002 2.08301C16.954 2.08301 14.4354 2.35132 12.4973 2.67833L12.2725 2.71606C10.5888 2.9979 9.18935 3.23215 8.09513 4.57981C7.39338 5.44408 7.16696 6.3781 7.11477 7.42151L6.29468 7.69487C5.52281 7.95212 4.84627 8.17759 4.30953 8.42728C3.72929 8.69721 3.19754 9.0449 2.79102 9.60893C2.38451 10.1729 2.22283 10.7874 2.15026 11.4232C2.08313 12.0113 2.08319 12.7245 2.08326 13.5381L2.08326 13.7801C2.08324 14.4498 2.08323 15.0413 2.13267 15.536C2.18625 16.0721 2.30491 16.5934 2.6013 17.0971C2.8977 17.6008 3.29571 17.9576 3.73836 18.2648C4.14681 18.5483 4.66386 18.8355 5.24928 19.1607L9.65121 21.6063C10.5502 23.375 11.7852 24.9519 13.4835 26.091C14.9619 27.0825 16.7362 27.705 18.8379 27.8714C18.7811 28.0142 18.7499 28.1699 18.7499 28.333V31.2497H16.3663C14.9759 31.2497 13.7789 32.231 13.5062 33.5943L13.1418 35.4163H9.99992C9.30956 35.4163 8.74992 35.976 8.74992 36.6663C8.74992 37.3567 9.30956 37.9163 9.99992 37.9163H29.9999C30.6903 37.9163 31.2499 37.3567 31.2499 36.6663C31.2499 35.976 30.6903 35.4163 29.9999 35.4163H26.858L26.4936 33.5943C26.221 32.231 25.0239 31.2497 23.6336 31.2497H21.2499V28.333C21.2499 28.17 21.2187 28.0142 21.1619 27.8714C23.2638 27.7051 25.0383 27.0826 26.5168 26.091C28.2153 24.9518 29.4503 23.3747 30.3494 21.6058L34.7505 19.1607C35.3359 18.8355 35.853 18.5483 36.2614 18.2648C36.7041 17.9576 37.1021 17.6008 37.3985 17.0971C37.6949 16.5934 37.8135 16.0721 37.8671 15.536C37.9165 15.0413 37.9165 14.4499 37.9165 13.7802L37.9165 13.5381C37.9166 12.7245 37.9166 12.0114 37.8495 11.4232C37.7769 10.7874 37.6153 10.1729 37.2087 9.60893C36.8022 9.0449 36.2705 8.69721 35.6902 8.42728C35.1535 8.17759 34.477 7.95212 33.7051 7.69488L32.8856 7.42171C32.8334 6.37822 32.607 5.44414 31.9052 4.57981C30.811 3.23215 29.4116 2.9979 27.7279 2.71606L27.5031 2.67833C25.5649 2.35132 23.0464 2.08301 20.0002 2.08301ZM24.3085 35.4163L24.0422 34.0846C24.0032 33.8899 23.8322 33.7497 23.6336 33.7497H16.3663C16.1677 33.7497 15.9966 33.8899 15.9577 34.0846L15.6914 35.4163H24.3085ZM7.14741 10.0459L7.17008 10.0383C7.28937 12.5721 7.57558 15.3726 8.28822 17.9892L6.51207 17.0024C5.86348 16.642 5.45736 16.4148 5.16374 16.211C4.89305 16.0231 4.80489 15.9124 4.75597 15.8292C4.70705 15.7461 4.65304 15.6152 4.62028 15.2874C4.58473 14.9318 4.58328 14.4664 4.58326 13.7244L4.58326 13.6035C4.58324 12.7051 4.58511 12.1362 4.63413 11.7067C4.67951 11.3092 4.75376 11.1614 4.81915 11.0707C4.88453 10.98 5.00125 10.8628 5.36403 10.694C5.75595 10.5117 6.29505 10.33 7.14741 10.0459ZM32.8303 10.0385C32.711 12.5722 32.4248 15.3724 31.7122 17.9888L33.4877 17.0024C34.1363 16.642 34.5424 16.4148 34.836 16.211C35.1067 16.0231 35.1949 15.9124 35.2438 15.8292C35.2927 15.7461 35.3467 15.6152 35.3795 15.2874C35.415 14.9318 35.4165 14.4664 35.4165 13.7244L35.4165 13.6035C35.4165 12.7051 35.4147 12.1362 35.3656 11.7067C35.3203 11.3092 35.246 11.1614 35.1806 11.0707C35.1152 10.98 34.9985 10.8628 34.6357 10.694C34.2438 10.5117 33.7047 10.33 32.8524 10.0459L32.8303 10.0385ZM12.9132 5.14349C14.7219 4.83832 17.1012 4.58301 20.0002 4.58301C22.8991 4.58301 25.2784 4.83832 27.0872 5.14349C29.0987 5.48288 29.5212 5.60984 29.9644 6.15565C30.4012 6.69355 30.4426 7.20228 30.353 9.46087C30.2035 13.2253 29.7069 17.2876 28.169 20.377C27.4099 21.9021 26.4174 23.1475 25.1243 24.0147C23.8395 24.8764 22.182 25.4163 20.0002 25.4163C17.8184 25.4163 16.1609 24.8764 14.8761 24.0147C13.583 23.1475 12.5905 21.9021 11.8313 20.377C10.2934 17.2876 9.79684 13.2253 9.64739 9.46087C9.55772 7.20228 9.59919 6.69355 10.0359 6.15565C10.4791 5.60984 10.9017 5.48288 12.9132 5.14349Z" fill="#FFBD59"/>
</g>
</svg>
