<svg width="160" height="16" viewBox="0 0 160 16" fill="none" xmlns="http://www.w3.org/2000/svg">
<g clip-path="url(#clip0_440_1118)">
<path d="M13.4933 3.81405C13.4933 3.60285 13.5772 3.40018 13.7266 3.25085L15.9786 0.998047L23.1466 8.16462L16.5426 14.768C16.3932 14.9172 16.1908 15.0009 15.9797 15.0009C15.7686 15.0009 15.5662 14.9172 15.4169 14.768L13.1641 12.5159L17.5154 8.16462L13.7266 4.37725C13.6526 4.30328 13.5939 4.21548 13.5539 4.11885C13.5139 4.02221 13.4933 3.91864 13.4933 3.81405Z" fill="#9A9AAC"/>
<path fill-rule="evenodd" clip-rule="evenodd" d="M45.0792 1.63574C41.5265 1.63574 38.6465 4.55912 38.6465 8.16516C38.6465 11.7705 41.5265 14.6946 45.0792 14.6946C48.6319 14.6946 51.5127 11.7719 51.5127 8.16516C51.5127 4.55912 48.6327 1.63574 45.0792 1.63574ZM45.0792 11.4462C43.3235 11.4462 41.8956 9.97423 41.8956 8.16516C41.8956 6.3561 43.3235 4.88481 45.0792 4.88481C46.8357 4.88481 48.2636 6.35681 48.2636 8.16516C48.2636 9.97423 46.8357 11.4462 45.0792 11.4462ZM27.1265 1.79503C26.9153 1.79503 26.7127 1.87894 26.5634 2.0283C26.414 2.17767 26.3301 2.38025 26.3301 2.59148V14.5353H31.3733C33.0512 14.5176 34.6543 13.8386 35.8346 12.6458C37.0148 11.453 37.6768 9.8428 37.6768 8.16481C37.6768 6.48681 37.0148 4.87657 35.8346 3.6838C34.6543 2.49103 33.0512 1.81205 31.3733 1.79432H27.1265V1.79503ZM29.5151 11.3502V4.98081H31.3733C33.1297 4.98081 34.4631 6.41014 34.4631 8.16588C34.4631 9.92232 33.1297 11.3509 31.3733 11.3509L29.5151 11.3502Z" fill="#9A9AAC"/>
<path d="M63.1295 1.79476C62.9649 1.79491 62.8043 1.84607 62.67 1.9412C62.5356 2.03632 62.4341 2.17074 62.3792 2.32596L59.6784 9.49182L56.9784 2.32596C56.9234 2.17087 56.8218 2.03661 56.6875 1.94162C56.5531 1.84663 56.3927 1.79557 56.2281 1.79547L52.5126 1.79476V14.535H55.6976V7.1032L58.6175 14.4404H60.7408L63.6607 7.10391V14.535H66.8464V1.79476H63.1295ZM93.3894 14.535H89.9391V1.79476H93.3894V14.535ZM68.4386 1.79476V13.7386C68.439 13.9497 68.523 14.1521 68.6723 14.3013C68.8216 14.4506 69.0239 14.5346 69.2351 14.535H77.4626V11.3492H71.6237V9.22587H76.4016V6.57271H71.6237V4.97982H77.4626V1.79547L68.4386 1.79476ZM78.525 4.18409V1.79476H88.8767V4.98053H85.4264V14.535H81.976V4.97911H79.3208C79.1096 4.97892 78.9072 4.89493 78.758 4.74559C78.6088 4.59625 78.525 4.39377 78.525 4.18267V4.18409ZM13.88 7.60169L7.27595 0.999023L0.109375 8.1656L2.36289 10.4177C2.43684 10.4917 2.52465 10.5503 2.62128 10.5904C2.71792 10.6304 2.82149 10.651 2.92609 10.651C3.03068 10.651 3.13426 10.6304 3.23089 10.5904C3.32753 10.5503 3.41533 10.4917 3.48929 10.4177L7.27595 6.62889L11.628 10.9809L13.8793 8.72738C14.0285 8.57817 14.1122 8.37584 14.1122 8.16489C14.1122 7.95394 14.0285 7.75162 13.8793 7.6024L13.88 7.60169ZM102.152 5.18533C101.736 4.9887 101.282 4.88601 100.822 4.88453C99.0655 4.88453 97.6375 6.35653 97.6375 8.1656C97.6375 9.97396 99.0655 11.446 100.822 11.446C101.282 11.4444 101.736 11.3417 102.152 11.1451C102.569 10.9485 102.936 10.6627 103.23 10.3082L105.532 12.61C104.936 13.2664 104.208 13.7908 103.397 14.1498C102.586 14.5087 101.709 14.6942 100.822 14.6943C97.2692 14.6943 94.3885 11.7709 94.3885 8.16489C94.3885 4.55885 97.2685 1.63547 100.822 1.63547C101.709 1.63571 102.586 1.82123 103.397 2.18014C104.208 2.53906 104.936 3.06346 105.532 3.71973L103.23 6.02231C102.936 5.66676 102.568 5.3816 102.152 5.18533Z" fill="#9A9AAC"/>
<path d="M147.111 6.59005C146.798 6.58071 146.489 6.66515 146.223 6.83256C145.958 6.99997 145.749 7.24273 145.622 7.52977C145.496 7.8168 145.458 8.13506 145.513 8.44378C145.569 8.75251 145.715 9.03766 145.934 9.26274C146.152 9.48781 146.433 9.64257 146.74 9.70719C147.047 9.77182 147.366 9.74337 147.657 9.62549C147.947 9.50762 148.196 9.30568 148.371 9.04552C148.547 8.78536 148.64 8.47883 148.64 8.16516C148.646 7.75373 148.488 7.35689 148.201 7.06163C147.915 6.76638 147.523 6.59679 147.111 6.59005ZM115.502 6.59005C115.188 6.58071 114.879 6.66515 114.614 6.83256C114.348 6.99997 114.139 7.24273 114.013 7.52977C113.886 7.8168 113.848 8.13506 113.904 8.44378C113.959 8.75251 114.106 9.03766 114.324 9.26274C114.542 9.48781 114.823 9.64257 115.13 9.70719C115.437 9.77182 115.756 9.74337 116.047 9.62549C116.338 9.50762 116.586 9.30568 116.762 9.04552C116.937 8.78536 117.031 8.47883 117.031 8.16516C117.036 7.75367 116.878 7.35673 116.592 7.06143C116.305 6.76613 115.913 6.59661 115.502 6.59005ZM111.49 1.63574C111.147 1.63565 110.807 1.70314 110.49 1.83436C110.173 1.96558 109.885 2.15795 109.642 2.4005C109.4 2.64305 109.207 2.93102 109.076 3.24795C108.945 3.56489 108.877 3.90459 108.877 4.24765V14.6953H156.718C157.411 14.6953 158.075 14.4201 158.565 13.9303C159.055 13.4405 159.33 12.7761 159.33 12.0834V1.63574H111.49ZM115.502 11.3005C115.037 11.3071 114.576 11.2104 114.153 11.0171C113.73 10.8239 113.355 10.539 113.056 10.1831C112.756 9.82722 112.54 9.40923 112.422 8.95938C112.304 8.50953 112.287 8.03907 112.373 7.58205C112.46 7.12526 112.648 6.6935 112.922 6.31798C113.196 5.94245 113.55 5.63256 113.959 5.41072C114.368 5.18887 114.821 5.0606 115.285 5.0352C115.749 5.0098 116.213 5.08789 116.644 5.26383C117.22 5.49941 117.712 5.90117 118.059 6.41789C118.406 6.93461 118.591 7.54288 118.591 8.16516C118.594 8.57391 118.516 8.97926 118.363 9.35808C118.209 9.73689 117.983 10.0817 117.696 10.373C117.409 10.6642 117.067 10.896 116.691 11.0553C116.315 11.2145 115.91 11.2981 115.502 11.3012V11.3005ZM124.522 8.64801C124.522 9.54899 124.318 10.1236 123.898 10.5701C123.448 11.048 122.776 11.3005 121.907 11.3005C121.029 11.3005 120.373 11.0551 119.907 10.5701C119.492 10.1207 119.291 9.54614 119.291 8.64801V5.10668H120.823V8.4489C120.823 8.87059 120.917 9.18419 121.101 9.40392C121.201 9.5171 121.326 9.60615 121.465 9.6644C121.605 9.72264 121.756 9.74858 121.907 9.74028C122.065 9.74871 122.224 9.72298 122.371 9.66483C122.519 9.60667 122.653 9.51745 122.763 9.40321C122.946 9.18419 122.991 8.86988 122.991 8.4489V5.10668H124.523L124.522 8.64801ZM130.249 6.63556H128.592V11.2244H126.935V6.63628H125.661C125.61 6.63637 125.561 6.62654 125.514 6.60734C125.468 6.58815 125.425 6.55997 125.39 6.52443C125.354 6.48889 125.326 6.44667 125.307 6.40022C125.288 6.35376 125.278 6.30397 125.278 6.2537V5.10668H130.249V6.63556ZM133.427 11.2244H131.005V5.48925C131.005 5.38778 131.045 5.29058 131.117 5.21889C131.189 5.14721 131.286 5.10686 131.388 5.10668H133.427C133.832 5.10049 134.235 5.17504 134.612 5.32599C134.988 5.47693 135.331 5.70126 135.62 5.98591C135.909 6.27057 136.138 6.60986 136.295 6.98405C136.452 7.35824 136.532 7.75986 136.532 8.16552C136.532 8.57118 136.452 8.9728 136.295 9.34699C136.138 9.72118 135.909 10.0605 135.62 10.3451C135.331 10.6298 134.988 10.8541 134.612 11.0051C134.235 11.156 133.832 11.2305 133.427 11.2244ZM140.254 11.3005C139.632 11.3094 139.021 11.1333 138.5 10.7945C137.978 10.4557 137.569 9.96941 137.324 9.39752C137.079 8.82558 137.01 8.19367 137.126 7.58234C137.242 6.97102 137.537 6.40797 137.973 5.96499C138.41 5.52186 138.969 5.21864 139.578 5.09391C140.188 4.96918 140.821 5.02857 141.396 5.26453C141.972 5.50049 142.465 5.90235 142.811 6.41899C143.158 6.93564 143.343 7.54372 143.343 8.16588C143.348 8.99103 143.026 9.78458 142.447 10.3724C141.868 10.9602 141.079 11.2942 140.254 11.3012V11.3005ZM147.111 11.3005C146.489 11.3099 145.878 11.134 145.357 10.7951C144.835 10.4562 144.426 9.9697 144.181 9.39752C143.938 8.82536 143.869 8.19361 143.985 7.58247C144.101 6.97133 144.395 6.40835 144.831 5.96499C145.268 5.5214 145.827 5.21777 146.436 5.09279C147.046 4.9678 147.679 5.0271 148.255 5.26315C148.831 5.4992 149.323 5.9013 149.67 6.41824C150.016 6.93518 150.201 7.54356 150.2 8.16588C150.206 8.99125 149.884 9.78524 149.305 10.3732C148.726 10.9612 147.937 11.295 147.111 11.3012V11.3005ZM154.096 11.2244L152.867 9.0697H152.464V11.2244H150.926V5.10596H153.186C153.873 5.10596 154.402 5.2489 154.804 5.5433C155.026 5.7186 155.203 5.94333 155.323 6.19954C155.442 6.45574 155.5 6.73632 155.492 7.01885C155.492 8.20641 154.712 8.66152 154.359 8.79663L155.894 11.2229H154.096V11.2244ZM133.427 6.63485H132.534V9.69405H133.427C133.725 9.69264 134.017 9.60143 134.263 9.43226C134.509 9.2631 134.699 9.0238 134.808 8.74543C134.88 8.56056 134.915 8.36301 134.91 8.16445C134.915 7.96609 134.881 7.7687 134.808 7.58392C134.736 7.39913 134.627 7.2307 134.489 7.08854C134.351 6.9459 134.186 6.83228 134.004 6.75436C133.821 6.67645 133.625 6.63581 133.427 6.63485ZM140.254 6.58934C139.94 6.58 139.631 6.66444 139.366 6.83185C139.101 6.99926 138.892 7.24202 138.765 7.52906C138.639 7.81609 138.601 8.13435 138.656 8.44307C138.712 8.7518 138.858 9.03695 139.076 9.26203C139.295 9.4871 139.575 9.64185 139.882 9.70648C140.189 9.7711 140.509 9.74266 140.799 9.62478C141.09 9.50691 141.339 9.30497 141.514 9.04481C141.689 8.78465 141.783 8.47812 141.783 8.16445C141.788 7.75302 141.631 7.35618 141.344 7.06092C141.057 6.76567 140.665 6.59608 140.254 6.58934ZM153.663 6.52392C153.506 6.40516 153.296 6.3817 152.987 6.3817H152.456V7.7449H152.987C153.329 7.7449 153.52 7.71076 153.663 7.60268C153.748 7.54028 153.817 7.45896 153.864 7.36523C153.911 7.27151 153.936 7.16798 153.937 7.06294C153.936 6.95803 153.911 6.85464 153.864 6.76105C153.816 6.66745 153.748 6.58625 153.663 6.52392Z" fill="#9A9AAC"/>
</g>
<defs>
<clipPath id="clip0_440_1118">
<rect width="160" height="14.2222" fill="white" transform="translate(0 0.888672)"/>
</clipPath>
</defs>
</svg>
