<svg width="122" height="22" viewBox="0 0 122 22" fill="none" xmlns="http://www.w3.org/2000/svg">
<g clip-path="url(#clip0_440_1092)">
<mask id="mask0_440_1092" style="mask-type:luminance" maskUnits="userSpaceOnUse" x="0" y="0" width="122" height="22">
<path d="M0.267578 0.333008H121.731V21.6661H0.267578V0.333008Z" fill="white"/>
</mask>
<g mask="url(#mask0_440_1092)">
<path d="M121.732 21.6665L118.651 3.31814C118.651 3.31814 118.535 2.52718 118.327 1.62839C117.994 0.20446 117.045 0.362974 114.83 0.337633H110.285C106.838 0.337633 106.872 0.312832 105.814 3.38499C104.249 7.93878 99.6118 21.6665 99.6118 21.6665H103.067C106.538 21.6665 106.53 21.6665 107.57 18.6116C107.637 18.4115 107.979 17.3957 107.979 17.3957H114.206L114.913 21.6665H121.732ZM113.24 11.9264H109.81L111.866 5.83226H112.216L113.24 11.9264ZM101.635 7.56406C103.108 2.40264 99.9282 0.321458 95.3831 0.337633H88.6813C85.2182 0.337633 85.2182 0.337633 84.1938 3.38499L78.0166 21.6584H94.5835C98.1048 21.5085 99.4786 19.327 100.178 17.3461C101.269 14.2157 100.594 12.2009 99.3956 11.0023C100.486 10.2782 101.202 9.10392 101.635 7.56406ZM91.7529 13.7332C93.5095 13.7332 94.4088 14.0491 93.9009 15.5642C93.4599 16.8798 92.6608 17.3957 91.2121 17.3957C91.2035 17.4044 92.1109 17.3957 86.3585 17.3957L87.5992 13.7332H91.7529ZM95.8991 7.64709C95.5076 8.96266 94.9669 9.16269 93.3014 9.16269H89.1557L90.288 5.79937L94.4336 5.80746C95.4327 5.80746 96.3487 6.16547 95.8991 7.64709ZM81.4802 5.81555L83.3284 0.337633C81.5298 0.337633 80.7307 0.337633 79.8648 0.337633C76.4099 0.337633 76.4185 0.337633 75.3941 3.38499L69.2007 21.6665H72.6551C76.1106 21.6665 76.1106 21.6584 77.1512 18.6116L81.4802 5.81555ZM72.0809 8.28816C73.2967 2.69378 70.2995 0.337633 65.7457 0.337633H59.0525C55.5976 0.337633 55.5889 0.34626 54.5651 3.38499L48.3798 21.6665H51.8428C55.2978 21.6665 55.2978 21.6665 56.3303 18.6116L60.6673 5.80746C60.6673 5.80746 63.7476 5.80746 64.855 5.80746C65.3796 5.80746 66.9443 5.94064 66.5448 7.27291C66.0288 9.00417 65.3877 9.15406 63.7142 9.15406H61.6082L59.7432 14.6654L60.9256 21.6665H67.7185L66.4116 13.8081C69.8331 13.4916 71.6313 10.3364 72.0809 8.28816ZM53.4576 2.77735L54.282 0.337633H40.4373C36.9824 0.329546 36.9824 0.337633 35.9504 3.38499L29.7732 21.6665H43.6179C47.0728 21.6665 47.0728 21.6665 48.1048 18.6196L48.9459 16.1718H38.5476L39.5881 13.1169H47.8136L49.5287 8.18033H41.2536L42.0527 5.80746H48.9788C52.4337 5.80746 52.4337 5.80746 53.4576 2.77735ZM32.7704 5.80746L34.6181 0.337633H16.9858C13.6893 0.337633 13.5977 0.296118 11.6745 3.32676C11.3165 3.90097 10.1179 5.80746 10.1179 5.80746H32.7704ZM31.9541 8.18033H8.64438L5.1975 13.7246H30.0978L31.9541 8.18033ZM29.2653 16.1718H3.67436L0.269531 21.6665H24.4786C27.417 21.6665 27.417 21.6665 28.4409 18.6196L29.2653 16.1718Z" fill="#9A9AAC"/>
<path d="M29.7718 21.6609L35.949 3.37885C36.9561 0.415602 36.9809 0.332031 40.1609 0.332031C40.2526 0.332031 40.3442 0.332031 40.4359 0.332031H54.2806L53.4562 2.77984C52.4323 5.80995 52.4323 5.80995 48.9774 5.80995H42.0512L41.2517 8.18281H49.5268L47.8117 13.1113H39.5867L38.5461 16.1749H48.9439L48.1034 18.614C47.0709 21.6609 47.0709 21.6609 43.6159 21.6609H29.7718ZM10.116 5.80995C10.116 5.80995 11.3151 3.89537 11.6731 3.32925C13.5461 0.373547 13.6793 0.332031 16.7428 0.332031C16.8178 0.332031 16.9008 0.332031 16.9925 0.332031H34.6167L32.7684 5.80995H10.116ZM78.0152 21.6528L84.1924 3.38748C85.2163 0.340658 85.2163 0.340658 88.6793 0.332031L95.3811 0.340658C95.3979 0.340658 95.4146 0.340658 95.4313 0.340658C99.9516 0.340658 103.107 2.42183 101.633 7.56655C101.2 9.10694 100.484 10.2807 99.3941 11.0048C100.593 12.2039 101.267 14.2182 100.176 17.3486C99.4853 19.3214 98.1034 21.5029 94.5821 21.6528H78.0152ZM83.3265 0.332031L81.4869 5.81857H81.4782L77.1493 18.614C76.1087 21.6609 76.1087 21.6609 72.6537 21.6609H69.1987L75.3927 3.38748C76.4165 0.340658 76.4085 0.332031 79.8634 0.332031C80.4376 0.332031 80.987 0.332031 81.8195 0.332031C82.2358 0.332031 82.7269 0.332031 83.3265 0.332031ZM48.3778 21.6609L54.5636 3.38748C55.5875 0.340658 55.5956 0.332031 59.0506 0.332031H65.7443C70.2976 0.332031 73.2948 2.69627 72.0795 8.28256C71.6379 10.3389 69.8317 13.4941 66.4102 13.8106L67.7171 21.6609H60.9236L59.7418 14.6598L61.6062 9.15654H63.7127C65.3858 9.15654 66.0274 9.00666 66.5434 7.2754C66.9429 5.94312 65.3777 5.80995 64.8531 5.80995C63.7462 5.80995 60.6659 5.80995 60.6659 5.80995L56.3283 18.614C55.2964 21.6609 55.2964 21.6609 51.8414 21.6609H48.3778ZM99.6103 21.6609C99.6103 21.6609 104.247 7.94127 105.812 3.37885C106.87 0.30723 106.836 0.340658 110.283 0.340658H114.828C117.043 0.365459 117.992 0.207484 118.325 1.62279C118.533 2.53021 118.65 3.32062 118.65 3.32062L121.73 21.6609H114.912L114.204 17.3988H107.977C107.977 17.3988 107.636 18.4059 107.569 18.614C106.528 21.6689 106.537 21.6609 103.065 21.6609H99.6103ZM31.9527 8.18281L30.0963 13.727H5.19609L8.64243 8.18281H31.9527ZM29.2639 16.1749L28.4395 18.6221C27.4156 21.6689 27.4156 21.6609 24.4766 21.6609H0.267578L3.67241 16.1749H29.2639ZM90.286 5.80186L89.1538 9.16517H93.3C94.9649 9.16517 95.5062 8.96514 95.8971 7.65012C96.3468 6.16795 95.4313 5.80995 94.4322 5.80186H90.286ZM112.222 5.83475H111.864L109.808 11.9289H113.246L112.222 5.83475ZM91.7515 13.7357H87.6058L86.3571 17.3988C90.1863 17.3988 91.0689 17.3988 91.2269 17.3988C91.3018 17.3988 91.2021 17.3988 91.2102 17.3988C92.6589 17.3988 93.4579 16.8742 93.899 15.5586C94.4069 14.0516 93.5081 13.7357 91.7515 13.7357Z" fill="#9A9AAC"/>
<path d="M40.1629 0.33692C36.9824 0.33692 36.9576 0.420491 35.9504 3.38428L29.7732 21.6657H43.6179C47.0728 21.6657 47.0728 21.6657 48.1048 18.6189L48.9459 16.1711H38.5476L39.5881 13.1162H47.8136L49.5287 8.17961H41.2536L42.0527 5.80675H48.9788C52.4337 5.80675 52.4337 5.80675 53.4576 2.77664L54.282 0.33692H40.4373C40.3462 0.33692 40.2545 0.33692 40.1629 0.33692ZM16.7443 0.33692C13.6807 0.33692 13.5475 0.370349 11.6745 3.32605C11.3165 3.90026 10.1179 5.80675 10.1179 5.80675H32.7704L34.6181 0.33692H16.9858C16.9028 0.33692 16.8192 0.33692 16.7443 0.33692ZM88.6813 0.33692C85.2182 0.33692 85.2182 0.33692 84.1938 3.38428L78.0166 21.6577H94.5835C98.1048 21.5078 99.4872 19.3263 100.178 17.3454C101.269 14.215 100.594 12.2002 99.3956 11.0016C100.486 10.2775 101.202 9.1032 101.635 7.56335C103.1 2.41864 99.9536 0.33692 95.4327 0.33692C95.416 0.33692 95.3993 0.33692 95.3831 0.33692H88.6813ZM89.1557 9.17006L90.288 5.79866L94.4336 5.80675C95.4327 5.80675 96.3487 6.16475 95.8991 7.64638C95.5076 8.96194 94.9669 9.17006 93.3014 9.17006H89.1557ZM91.2288 17.4036C91.0703 17.4036 90.1882 17.395 86.3585 17.395L87.5992 13.7325H91.7529C93.5095 13.7325 94.4088 14.0484 93.9009 15.5635C93.4599 16.879 92.6608 17.395 91.2121 17.395C91.2035 17.4036 91.3038 17.4036 91.2288 17.4036ZM83.3284 0.33692C82.7289 0.33692 82.2377 0.33692 81.8215 0.33692C80.989 0.33692 80.4396 0.33692 79.8648 0.33692C76.4099 0.33692 76.4185 0.33692 75.3941 3.38428L69.2007 21.6657H72.6551C76.1106 21.6657 76.1106 21.6577 77.1512 18.6108L81.4802 5.82346L83.3284 0.33692ZM65.7457 0.33692H59.0525C55.5976 0.33692 55.5889 0.345547 54.5651 3.38428L48.3798 21.6657H51.8428C55.2978 21.6657 55.2978 21.6657 56.3303 18.6108L60.6673 5.80675C60.6673 5.80675 63.7476 5.80675 64.855 5.80675C65.3796 5.80675 66.9443 5.93992 66.5448 7.2722C66.0288 9.00346 65.3877 9.15335 63.7142 9.15335H61.6082L59.7432 14.6647L60.9256 21.6657H67.7185L66.4116 13.8074C69.8331 13.4909 71.6313 10.3357 72.0809 8.28745C73.2967 2.69307 70.2995 0.33692 65.7457 0.33692ZM114.83 0.33692H110.285C106.838 0.33692 106.872 0.312119 105.814 3.38428C104.249 7.93807 99.6118 21.6657 99.6118 21.6657H103.067C106.538 21.6657 106.53 21.6657 107.57 18.6108C107.637 18.4108 107.979 17.395 107.979 17.395H114.206L114.913 21.6657H121.732L118.651 3.31742C118.651 3.31742 118.535 2.52647 118.327 1.62768C117.994 0.203747 117.045 0.362261 114.83 0.33692ZM109.81 11.9257L111.866 5.83155H112.216L113.248 11.9257H109.81ZM31.9541 8.17961H8.64438L5.1975 13.7238H30.0978L31.9541 8.17961ZM29.2653 16.1711H3.67436L0.269531 21.6657H24.4786C27.417 21.6657 27.417 21.6657 28.4409 18.6189L29.2653 16.1711Z" fill="#9A9AAC"/>
</g>
</g>
<defs>
<clipPath id="clip0_440_1092">
<rect width="121.463" height="21.3333" fill="white" transform="translate(0.267578 0.333008)"/>
</clipPath>
</defs>
</svg>
