<svg width="96" height="54" viewBox="0 0 96 54" fill="none" xmlns="http://www.w3.org/2000/svg">
<g id="g6">
<path id="path8" d="M3.88066 29.8584C7.47215 30.1329 8.96683 29.2285 8.96683 27.7315C8.96683 26.8554 8.17912 26.2942 6.94775 26.2942C6.10849 26.2942 5.47971 26.496 4.6138 27.0702L3.88066 29.8584ZM5.00766 25.4893C6.23951 24.9136 7.10462 24.7125 8.23274 24.7125C10.7751 24.7125 12.663 25.964 12.663 27.6451C12.663 29.4715 10.4344 31.4838 5.00766 31.4838C2.77904 31.4838 0.996456 31.3684 0 31.2682L2.4905 21.5498H6.02997L5.00766 25.4893ZM19.6882 22.7578C19.6882 23.2754 18.9284 23.7058 17.9846 23.7058C17.0408 23.7058 16.2539 23.2754 16.2539 22.7578C16.2539 22.2409 17.0408 21.8235 17.9846 21.8235C18.9284 21.8235 19.6882 22.2409 19.6882 22.7578ZM26.9435 22.7578C26.9435 23.2754 26.1845 23.7058 25.2383 23.7058C24.2953 23.7058 23.5084 23.2754 23.5084 22.7578C23.5084 22.2409 24.2953 21.8235 25.2383 21.8235C26.1845 21.8235 26.9435 22.2409 26.9435 22.7578ZM25.3003 31.3538H21.7596L21.9699 30.6206C20.7899 31.1679 19.3993 31.4692 18.1156 31.4692C15.3889 31.4692 14.3403 30.3339 14.7073 28.967L15.782 24.8279H19.3219L18.4305 28.2927C18.0893 29.6015 18.535 30.0327 19.3735 30.0327C20.2909 30.0327 21.3132 29.7001 22.3635 29.0832L23.4373 24.8279H26.9776L25.3003 31.3538ZM33.4192 25.7622L33.4715 25.7905C34.5725 25.0435 35.4906 24.7125 36.3562 24.7125C37.0625 24.7125 37.667 24.9136 38.4808 25.432L36.8279 27.2293C36.2253 26.74 35.7239 26.5878 35.1507 26.5236C34.3328 26.4318 33.5381 26.5082 33.1454 26.9394L32.0049 31.3536H28.4647L30.143 24.8278H33.6819L33.4192 25.7622ZM46.7605 26.3936C45.4536 26.3531 43.7221 26.2942 43.1203 26.2942C42.6482 26.2942 42.3326 26.4096 42.3326 26.5817C42.3326 27.3003 46.2919 27.8461 46.2919 29.4272C46.2919 30.6206 44.4352 31.5495 41.8116 31.5495C40.3974 31.5495 39.3584 31.4715 37.7757 31.3156L38.2117 29.5969C39.2069 29.7972 40.3404 29.8874 41.4682 29.8874C42.1757 29.8874 42.6208 29.7444 42.6208 29.528C42.6208 28.8247 38.637 28.1198 38.637 26.8262C38.637 25.5756 40.4269 24.7521 43.0931 24.7124C44.3521 24.6948 45.8097 24.7139 47.2349 24.8309L46.7605 26.3936ZM54.4607 24.8279H57.2402L56.7686 26.2652H54.1466L53.4661 28.3799C53.2301 29.1123 53.4876 29.5189 54.4363 29.7446C54.895 29.8539 55.2295 29.8302 56.2184 29.9869L55.6648 31.5893C54.4774 31.7452 53.4541 31.7621 52.4202 31.5893C50.0845 31.1979 49.3764 30.1183 49.8212 28.753L50.6608 26.2652H48.249L48.694 24.8279H51.1059L51.8815 21.5926H55.315L54.4607 24.8279ZM63.2478 25.5612C64.6887 24.9579 65.87 24.7125 67.3125 24.7125C70.0639 24.7125 70.7982 25.9778 70.4582 27.3157L69.435 31.3538H65.8957L66.8923 27.4586C67.0496 26.8264 66.7857 26.1506 65.8436 26.1506C65.0307 26.1506 64.0614 26.4519 62.8533 27.1568L61.779 31.354H58.24L59.9176 24.8281H63.4566L63.2478 25.5612ZM80.2892 27.2423C80.4969 26.5382 79.791 26.0504 78.5847 26.0504C77.4298 26.0504 76.6449 26.4243 76.1189 27.2423H80.2892ZM75.7792 28.3645C75.5955 29.4272 76.8008 30.0464 78.5063 30.0464C79.607 30.0464 80.6376 30.2215 82.6574 29.9868L82.2231 31.5494C80.7185 31.7451 79.2574 31.7214 78.0268 31.6671C74.4647 31.5112 72.2134 30.2321 72.2134 28.3071C72.2134 26.3086 75.0717 24.7124 78.6642 24.7124C82.3846 24.7124 84.4045 26.2797 83.5649 28.3644H75.7792V28.3645ZM90.2179 25.7622L90.2706 25.7905C91.3711 25.0435 92.2881 24.7125 93.1556 24.7125C93.8613 24.7125 94.4639 24.9136 95.2772 25.432L93.6259 27.2293C93.0224 26.74 92.526 26.5236 91.9483 26.5236C91.1094 26.5236 90.1918 27.042 89.7982 27.473L88.8023 31.3536H85.2642L86.9402 24.8278H90.4789L90.2179 25.7622Z" fill="white"/>
<path id="path10" d="M55.1912 20.3121H2.70703C5.59488 8.65273 16.2472 0 28.9485 0C41.6494 0 52.3031 8.65273 55.1912 20.3121ZM2.75779 33.23C5.72114 44.7832 16.323 53.3333 28.9485 53.3333C41.5742 53.3333 52.1754 44.7832 55.1375 33.23H2.75779Z" fill="white"/>
</g>
</svg>
