<svg width="96" height="54" viewBox="0 0 96 54" fill="none" xmlns="http://www.w3.org/2000/svg">
<g id="Group">
<path id="Vector" d="M73.6694 25.1571C73.673 24.5664 73.6146 23.9836 73.4332 23.4199C73.2453 22.8349 72.9725 22.3031 72.4493 21.9362C71.999 21.6204 71.4888 21.528 70.9559 21.5169C70.1124 21.4991 69.3321 21.6892 68.6632 22.2331C67.8906 22.8615 67.3568 23.6606 66.9846 24.5765C66.6015 25.5185 66.397 26.5007 66.3108 27.5107C66.2394 28.345 66.2583 29.1738 66.5041 29.9807C66.6915 30.5958 66.9682 31.1721 67.5743 31.4729C68.648 32.0052 69.74 31.9445 70.7758 31.3875C71.6393 30.9234 72.224 30.1611 72.6797 29.306C73.3691 28.01 73.6305 26.6092 73.6694 25.1571ZM74.6422 20.7675C75.1758 18.24 75.7004 15.7557 76.2253 13.2681H80.2765C78.7689 20.3656 77.2635 27.4513 75.7578 34.5407H71.7081C71.8202 34.0042 71.9304 33.4771 72.0289 33.0051C71.825 33.1911 71.5961 33.4096 71.3564 33.6156C70.5999 34.2659 69.7093 34.6316 68.7389 34.814C67.7396 35.0011 66.7412 34.9908 65.764 34.6929C64.5652 34.3277 63.6577 33.5724 63.0277 32.4983C62.3498 31.3421 62.1359 30.0593 62.1407 28.7438C62.1479 26.7952 62.5293 24.9193 63.3866 23.1579C64.1992 21.4882 65.3759 20.1459 67.0087 19.2319C67.8472 18.7622 68.7565 18.5193 69.7122 18.438C70.4101 18.3785 71.1031 18.3833 71.7913 18.5355C73.0092 18.8047 73.9058 19.5028 74.5288 20.5709C74.5585 20.6225 74.5887 20.6746 74.6422 20.7675Z" fill="white"/>
<path id="Vector_2" d="M55.8704 27.2481C55.8113 27.2481 55.7751 27.2435 55.7404 27.2488C54.7374 27.395 53.7303 27.519 52.7326 27.6968C51.8908 27.8468 51.0637 28.0704 50.3067 28.4925C49.6422 28.8631 49.1942 29.3802 49.1585 30.1803C49.1209 31.0292 49.4492 31.6175 50.2522 31.9038C50.7872 32.0944 51.3345 32.0698 51.8838 32.0124C52.7068 31.926 53.4582 31.658 54.0666 31.0779C55.1535 30.0412 55.6009 28.6983 55.8704 27.2481ZM58.4808 34.5463C57.2238 34.5463 55.9948 34.5463 54.7658 34.5461C54.742 34.5461 54.7186 34.5394 54.678 34.5331C54.8085 33.884 54.9378 33.2397 55.0674 32.5954C55.0522 32.5848 55.037 32.5742 55.022 32.5636C54.8163 32.777 54.6204 33.0016 54.4028 33.2025C53.2211 34.2921 51.8107 34.824 50.2165 34.9137C49.1585 34.9733 48.1517 34.811 47.1921 34.3413C45.6501 33.5868 44.765 31.9883 44.95 30.2778C45.0436 29.4121 45.3165 28.6228 45.8734 27.9455C46.2948 27.4331 46.8207 27.0494 47.3926 26.7208C48.5946 26.0309 49.9039 25.6496 51.2489 25.3727C52.8491 25.0434 54.4684 24.8458 56.0954 24.7079C56.2373 24.6958 56.3058 24.649 56.3374 24.5014C56.4532 23.9623 56.5658 23.4224 56.5091 22.8674C56.4322 22.1102 55.9821 21.6314 55.2866 21.4187C54.041 21.038 52.812 21.0865 51.6433 21.7175C50.911 22.1131 50.4654 22.7265 50.3067 23.5457C50.2954 23.6048 50.28 23.6629 50.2643 23.7293H46.4902C46.538 23.5455 46.5746 23.3686 46.6299 23.1981C47.0831 21.7952 47.9192 20.6745 49.1245 19.8271C50.3398 18.9722 51.7014 18.5289 53.1704 18.3972C54.4783 18.2797 55.7732 18.3634 57.0381 18.7325C58.0799 19.0369 59.0028 19.5403 59.6734 20.4273C60.1536 21.0626 60.4103 21.7826 60.4904 22.5734C60.5968 23.6229 60.3534 24.6251 60.1109 25.6308C59.5617 27.911 59.0069 30.1895 58.6284 32.5061C58.518 33.1755 58.4208 33.8466 58.4808 34.5463Z" fill="white"/>
<path id="Vector_3" d="M91.4439 25.5367C91.4504 24.6819 91.4041 24.0856 91.2241 23.5079C90.9559 22.646 90.4409 22.0044 89.5532 21.7292C88.8848 21.5217 88.2 21.5207 87.5243 21.6906C86.4155 21.9699 85.6197 22.6805 84.9976 23.6044C84.3902 24.5068 84.0532 25.517 83.8854 26.5843C83.7194 27.637 83.6724 28.6921 83.9596 29.7322C84.2329 30.7219 84.828 31.4195 85.8587 31.6697C86.5214 31.8308 87.1854 31.7862 87.8321 31.5843C89.0599 31.2017 89.8885 30.348 90.4889 29.2508C91.1638 28.0174 91.425 26.6784 91.4439 25.5367ZM88.8426 18.3789C90.0125 18.3941 91.151 18.5598 92.2174 19.0562C93.7504 19.7698 94.7642 20.9397 95.2199 22.577C95.5696 23.8338 95.5988 25.112 95.4353 26.3962C95.2307 27.9967 94.763 29.5108 93.8715 30.871C92.47 33.0082 90.5318 34.3619 87.9976 34.7903C86.5407 35.0368 85.0784 35.0091 83.6644 34.5331C81.6244 33.8466 80.347 32.4476 79.8838 30.3314C79.6219 29.134 79.6228 27.9284 79.8001 26.7211C80.05 25.016 80.5915 23.4179 81.6285 22.0232C83.0843 20.0657 84.9954 18.8406 87.4373 18.5075C87.9028 18.444 88.3739 18.4206 88.8426 18.3789Z" fill="white"/>
<path id="Vector_4" d="M11.9726 24.4972C11.8911 24.1139 11.8527 23.7316 11.7266 23.3808C11.3703 22.3902 10.6211 21.8293 9.60846 21.6438C8.76299 21.489 7.92814 21.5715 7.14033 21.9526C6.10865 22.4514 5.3563 23.2347 4.87917 24.2649C4.1261 25.8907 3.96593 27.5995 4.28651 29.3512C4.55016 30.7924 5.6226 31.6943 7.08847 31.7532C8.93016 31.8277 10.5084 30.8033 11.1785 29.0892C11.2328 28.9508 11.2977 28.9093 11.4424 28.91C12.586 28.9163 13.7296 28.9134 14.8732 28.9139C14.9379 28.9139 15.003 28.9194 15.1147 28.9242C14.9439 29.3649 14.8062 29.788 14.6204 30.1892C13.6872 32.2052 12.1883 33.6369 10.0878 34.3682C7.98121 35.1022 5.84621 35.1888 3.74474 34.3296C1.90329 33.5763 0.776574 32.1777 0.252653 30.2779C-0.0293284 29.2564 -0.0433191 28.2155 0.0560619 27.167C0.189213 25.7648 0.545489 24.426 1.20739 23.1809C2.55916 20.6373 4.63844 19.0619 7.48527 18.5425C8.72006 18.3172 9.96184 18.3192 11.1778 18.6453C13.4899 19.2645 14.9632 20.741 15.5443 23.0726C15.6589 23.5311 15.698 24.0085 15.7751 24.4972H11.9726Z" fill="white"/>
<path id="Vector_5" d="M37.1009 34.5409H33.0625C33.1327 34.2049 33.1995 33.8793 33.269 33.5541C34.0971 29.6792 34.9252 25.8041 35.754 21.9292C35.9711 20.9144 36.1908 19.8998 36.4053 18.8843C36.4243 18.7924 36.4504 18.7459 36.5548 18.7461C37.8147 18.749 39.0741 18.7483 40.334 18.7492C40.3566 18.7492 40.3793 18.7577 40.4218 18.7661C40.244 19.5484 40.0679 20.3232 39.8918 21.098C41.3603 19.3916 43.1977 18.6373 45.4473 18.8419C45.1723 20.1179 44.9014 21.3758 44.6266 22.6511C44.4481 22.6338 44.2745 22.6106 44.0998 22.6012C43.3241 22.5604 42.5517 22.5361 41.7832 22.7165C40.8195 22.9428 40.1193 23.5036 39.6154 24.3353C39.152 25.1002 38.9465 25.9544 38.7627 26.8167C38.2238 29.3485 37.6815 31.8801 37.1403 34.4114C37.1316 34.4529 37.1159 34.4932 37.1009 34.5409Z" fill="white"/>
<path id="Vector_6" d="M71.4212 11.9602C63.2906 4.53196 52.4687 0 40.5878 0C28.7067 0 17.8848 4.53196 9.75391 11.9602H71.4212Z" fill="white"/>
<path id="Vector_7" d="M85.8004 41.3735C77.6695 48.8018 66.8478 53.3335 54.967 53.3335C43.0859 53.3335 32.2637 48.8018 24.1328 41.3735H85.8004Z" fill="white"/>
<path id="Vector_8" d="M27.9567 27.2481C27.8976 27.2481 27.8615 27.2435 27.8265 27.2488C26.8235 27.395 25.8164 27.519 24.8188 27.6968C23.9772 27.8468 23.1503 28.0704 22.3931 28.4925C21.7288 28.8631 21.2806 29.3802 21.2451 30.1803C21.2073 31.0292 21.5356 31.6175 22.3388 31.9038C22.8736 32.0944 23.4212 32.0698 23.9704 32.0124C24.7934 31.926 25.5446 31.658 26.1527 31.0779C27.2396 30.0412 27.6873 28.6983 27.9567 27.2481ZM30.5669 34.5463C29.31 34.5463 28.081 34.5463 26.8517 34.5461C26.8278 34.5461 26.8044 34.5394 26.7639 34.5331C26.8944 33.884 27.0237 33.2397 27.1532 32.5954C27.1383 32.5848 27.1231 32.5742 27.1079 32.5636C26.9021 32.777 26.7063 33.0016 26.4887 33.2025C25.307 34.2921 23.8963 34.824 22.3024 34.9137C21.2444 34.9733 20.2376 34.811 19.2783 34.3413C17.7362 33.5868 16.8512 31.9883 17.0359 30.2778C17.1295 29.4121 17.4023 28.6228 17.9593 27.9455C18.3807 27.4331 18.9066 27.0494 19.4782 26.7208C20.6805 26.0309 21.9898 25.6496 23.3348 25.3727C24.935 25.0434 26.5543 24.8458 28.1811 24.7079C28.3227 24.6958 28.3914 24.649 28.423 24.5014C28.5388 23.9623 28.6514 23.4224 28.5945 22.8674C28.5173 22.1102 28.0677 21.6314 27.372 21.4187C26.1264 21.038 24.8976 21.0865 23.7287 21.7175C22.9961 22.1131 22.5508 22.7265 22.3924 23.5457C22.3808 23.6048 22.3654 23.6629 22.3499 23.7293H18.5754C18.6231 23.5455 18.66 23.3686 18.715 23.1981C19.1685 21.7952 20.0046 20.6745 21.2097 19.8271C22.4252 18.9722 23.7866 18.5289 25.2556 18.3972C26.5635 18.2797 27.8586 18.3634 29.1233 18.7325C30.1653 19.0369 31.0882 19.5403 31.7585 20.4273C32.239 21.0626 32.4957 21.7826 32.5755 22.5734C32.6817 23.6229 32.4383 24.6251 32.1959 25.6308C31.6469 27.911 31.0918 30.1895 30.7134 32.5061C30.6043 33.1755 30.5069 33.8466 30.5669 34.5463Z" fill="white"/>
</g>
</svg>
