<svg width="156" height="22" viewBox="0 0 156 22" fill="none" xmlns="http://www.w3.org/2000/svg">
<path d="M151.336 0.333107C150.987 0.331175 150.767 0.358109 150.767 0.358109H137.603L130.259 21.4851H137.71L143.373 5.92113H148.311C150.328 5.97285 149.373 7.57128 149.373 7.57128C149.115 9.12289 147.042 9.27769 147.042 9.27769L143.71 9.59022L142.391 12.928L145.029 21.4851H151.98L149.423 14.0656C154.983 13.9105 155.861 6.79621 155.861 6.79621C156.786 0.913035 152.846 0.34148 151.336 0.333107ZM15.517 0.358109L11.923 5.29607H36.3627L38.2004 0.358109H15.517ZM41.8195 0.358109L34.2125 21.6163L41.6382 21.6663L44.351 13.8844H51.4891L48.9577 21.4851H56.2771L63.5903 0.358109H56.3021L53.1455 8.65888H46.0824L48.7514 0.358109H41.8195ZM63.5903 0.358109L66.4093 15.6658L64.3403 21.4851H71.816L74.0912 15.5658L87.305 0.358109H78.5167L72.1536 9.02142L70.7847 0.358109H63.5903ZM87.5112 0.358109L80.5043 21.4851H87.4112L91.4179 8.94641V21.4851H97.5747L105.1 9.72148L100.831 21.5663H107.813L114.951 0.358109H104.738L96.8996 13.028L97.6747 0.358109H87.5112ZM117.977 0.358109L110.738 21.4851H128.271L129.821 16.8596H120.096L121.158 13.6781H129.69L131.19 9.07142H122.89L124.102 5.73986H133.753L135.509 0.358109H117.977ZM10.2978 7.62754L6.57247 13.003H33.6187L35.5877 7.62754H10.2978ZM4.55354 15.5658L0.078125 21.4851H30.5184L32.6624 15.5658H4.55354Z" fill="#9A9AAC"/>
</svg>
