<svg width="118" height="20" viewBox="0 0 118 20" fill="none" xmlns="http://www.w3.org/2000/svg">
<g id="movera-logo 1" clip-path="url(#clip0_406_18264)">
<g id="Group">
<path id="Vector" d="M36.8482 13.3712C38.6876 13.3712 40.1788 11.88 40.1788 10.0406C40.1788 8.20113 38.6876 6.70996 36.8482 6.70996C35.0087 6.70996 33.5176 8.20113 33.5176 10.0406C33.5176 11.88 35.0087 13.3712 36.8482 13.3712Z" fill="white"/>
<path id="Vector_2" d="M67.3058 0.260798V19.8363H79.7711V16.7098H70.6609V11.6077H78.4813V8.48121H70.6609V3.38733H79.7711V0.260798H67.3058ZM89.5833 10.2526C88.6527 10.2526 87.9017 11.0037 87.9017 11.9343C87.9017 12.3098 88.0241 12.6526 88.2364 12.9302L93.3466 19.8363H97.5262L92.6201 13.2077C95.1752 12.269 97.0037 9.81182 97.0037 6.93835C97.0037 3.25672 94.0078 0.260798 90.3262 0.260798H83.0527V19.8363H86.4078V3.6159H90.3262C92.1548 3.6159 93.6405 5.10161 93.6405 6.93019C93.6405 8.75876 92.1548 10.2445 90.3262 10.2445L89.5833 10.2526ZM36.8486 0.0322266C31.3303 0.0322266 26.8405 4.52202 26.8405 10.0404C26.8405 15.5588 31.3303 20.0486 36.8486 20.0486C42.367 20.0486 46.8568 15.5588 46.8568 10.0404C46.8568 4.52202 42.3588 0.0322266 36.8486 0.0322266ZM36.8486 16.6853C33.1833 16.6853 30.2037 13.7057 30.2037 10.0404C30.2037 6.37508 33.1833 3.39549 36.8486 3.39549C40.5139 3.39549 43.4935 6.37508 43.4935 10.0404C43.4935 13.7057 40.5139 16.6853 36.8486 16.6853ZM65.2405 0.260798H61.4527L56.0486 15.9506L50.6446 0.260798H46.8568L52.9058 17.8281C53.3629 19.1179 54.5956 20.0486 56.0405 20.0486C57.4854 20.0486 58.718 19.1179 59.1752 17.8281L65.2405 0.260798ZM110.996 2.25264C110.538 0.96284 109.306 0.0403903 107.861 0.0403903C106.416 0.0403903 105.191 0.96284 104.726 2.25264L98.669 19.8281H102.22L103.861 15.0608H111.861L113.502 19.8281H117.053L110.996 2.25264ZM104.938 11.9424L107.861 3.45263L110.783 11.9424H104.938ZM19.567 3.99141L22.0731 19.8363H25.7139L23.0364 2.92202H23.0282C22.8078 1.28937 21.4201 0.0322266 19.7303 0.0322266C18.1711 0.0322266 16.865 1.10162 16.5058 2.54651L12.865 13.8118L9.19965 2.47304C8.80781 1.06896 7.52618 0.0322266 5.99149 0.0322266C4.26087 0.0322266 2.84046 1.34651 2.6772 3.03631L0.0078125 19.8363H3.64047L6.14659 3.99957L9.71393 14.9873C10.1629 16.2935 11.4037 17.2322 12.8568 17.2322C14.3262 17.2322 15.5752 16.2771 16.016 14.9465L19.567 3.99141Z" fill="white"/>
</g>
</g>
<defs>
<clipPath id="clip0_406_18264">
<rect width="117.061" height="20" fill="white"/>
</clipPath>
</defs>
</svg>
