<svg width="156" height="22" viewBox="0 0 156 22" fill="none" xmlns="http://www.w3.org/2000/svg">
<path id="path20088" d="M151.258 9.91976e-05C150.909 -0.00183298 150.689 0.0251015 150.689 0.0251015H137.525L130.181 21.1521H137.632L143.295 5.58812H148.233C150.25 5.63984 149.295 7.23827 149.295 7.23827C149.037 8.78988 146.964 8.94468 146.964 8.94468L143.632 9.25721L142.313 12.595L144.951 21.1521H151.902L149.345 13.7326C154.905 13.5775 155.783 6.4632 155.783 6.4632C156.708 0.580027 152.768 0.00847198 151.258 9.91976e-05ZM15.4389 0.0251015L11.8448 4.96306H36.2846L38.1223 0.0251015H15.4389ZM41.7414 0.0251015L34.1344 21.2833L41.5601 21.3333L44.2729 13.5514H51.411L48.8795 21.1521H56.199L63.5121 0.0251015H56.224L53.0674 8.32587H46.0043L48.6733 0.0251015H41.7414ZM63.5121 0.0251015L66.3312 15.3328L64.2622 21.1521H71.7379L74.0131 15.2328L87.2269 0.0251015H78.4385L72.0754 8.68841L70.7066 0.0251015H63.5121ZM87.4331 0.0251015L80.4262 21.1521H87.3331L91.3397 8.6134V21.1521H97.4966L105.022 9.38847L100.753 21.2333H107.735L114.873 0.0251015H104.66L96.8215 12.695L97.5966 0.0251015H87.4331ZM117.898 0.0251015L110.66 21.1521H128.193L129.743 16.5266H120.017L121.08 13.3451H129.612L131.112 8.73841H122.811L124.024 5.40685H133.675L135.431 0.0251015H117.898ZM10.2197 7.29453L6.49434 12.67H33.5406L35.5095 7.29453H10.2197ZM4.47542 15.2328L0 21.1521H30.4403L32.5843 15.2328H4.47542Z" fill="white"/>
</svg>
