<svg width="40" height="40" viewBox="0 0 40 40" fill="none" xmlns="http://www.w3.org/2000/svg">
<g id="Outline / Security / Shield Check">
<g id="Vector">
<path d="M25.0991 17.4989C25.5589 16.9839 25.5141 16.1937 24.9992 15.7339C24.4842 15.2741 23.694 15.3189 23.2342 15.8338L18.2143 21.4562L16.7658 19.8338C16.306 19.3189 15.5158 19.2741 15.0008 19.7339C14.4859 20.1937 14.4411 20.9839 14.9009 21.4989L17.2819 24.1655C17.519 24.4311 17.8582 24.583 18.2143 24.583C18.5704 24.583 18.9096 24.4311 19.1467 24.1655L25.0991 17.4989Z" fill="#FFBD59"/>
<path fill-rule="evenodd" clip-rule="evenodd" d="M20 2.08301C18.4375 2.08301 16.9455 2.59398 14.539 3.4182L13.3266 3.83324C10.8577 4.67834 8.95234 5.33055 7.58838 5.88465C6.90131 6.16377 6.31061 6.43412 5.83497 6.71035C5.37724 6.97618 4.91804 7.30774 4.60605 7.75224C4.29767 8.19161 4.13822 8.73175 4.03802 9.25171C3.93385 9.79227 3.87104 10.4407 3.8305 11.1853C3.75 12.6636 3.75 14.6889 3.75 17.3157V19.9853C3.75 30.1537 11.43 35.0289 15.9972 37.0239L16.0424 37.0437C16.6087 37.2911 17.141 37.5237 17.7527 37.6803C18.3984 37.8456 19.0846 37.9163 20 37.9163C20.9154 37.9163 21.6016 37.8456 22.2473 37.6803C22.859 37.5237 23.3913 37.2912 23.9576 37.0437L24.0028 37.0239C28.57 35.0289 36.25 30.1537 36.25 19.9853V17.316C36.25 14.689 36.25 12.6637 36.1695 11.1853C36.129 10.4407 36.0661 9.79227 35.962 9.25171C35.8618 8.73175 35.7023 8.19161 35.3939 7.75224C35.082 7.30774 34.6228 6.97618 34.165 6.71035C33.6894 6.43412 33.0987 6.16377 32.4116 5.88465C31.0477 5.33055 29.1423 4.67834 26.6734 3.83323L25.461 3.4182C23.0545 2.59398 21.5625 2.08301 20 2.08301ZM15.1344 5.85684C17.8252 4.93574 18.9038 4.58301 20 4.58301C21.0962 4.58301 22.1748 4.93574 24.8656 5.85684L25.8203 6.18363C28.3413 7.04657 30.1798 7.67642 31.4707 8.20082C32.115 8.46257 32.5818 8.68192 32.9095 8.87223C33.0713 8.96618 33.1828 9.0437 33.2572 9.10422C33.3203 9.15549 33.3444 9.18454 33.3478 9.18881C33.351 9.194 33.3718 9.22862 33.401 9.31057C33.4343 9.40409 33.4712 9.53815 33.5071 9.72477C33.5799 10.1025 33.6351 10.6214 33.6732 11.3212C33.7495 12.7232 33.75 14.6802 33.75 17.3608V19.9853C33.75 28.6104 27.3002 32.8554 23.002 34.733C22.3829 35.0034 22.0254 35.1565 21.6273 35.2584C21.2472 35.3557 20.7833 35.4163 20 35.4163C19.2167 35.4163 18.7528 35.3557 18.3727 35.2584C17.9746 35.1565 17.6171 35.0034 16.998 34.733C12.6998 32.8554 6.25 28.6104 6.25 19.9853V17.3608C6.25 14.6802 6.25046 12.7232 6.3268 11.3212C6.36491 10.6214 6.42007 10.1025 6.49286 9.72477C6.52882 9.53815 6.56574 9.40409 6.59905 9.31057C6.62821 9.22868 6.64893 9.19405 6.65215 9.18882C6.6556 9.18458 6.67966 9.15553 6.74278 9.10422C6.81723 9.0437 6.9287 8.96618 7.09048 8.87223C7.41817 8.68192 7.885 8.46257 8.52932 8.20082C9.82016 7.67642 11.6587 7.04657 14.1797 6.18363L15.1344 5.85684Z" fill="#FFBD59"/>
</g>
</g>
</svg>
