<svg width="40" height="40" viewBox="0 0 40 40" fill="none" xmlns="http://www.w3.org/2000/svg">
	<path fill-rule="evenodd" clip-rule="evenodd"
		d="M19.9999 4.58301C18.8493 4.58301 17.9166 5.51575 17.9166 6.66634C17.9166 7.81693 18.8493 8.74967 19.9999 8.74967C21.1505 8.74967 22.0833 7.81693 22.0833 6.66634C22.0833 5.51575 21.1505 4.58301 19.9999 4.58301ZM15.4166 6.66634C15.4166 4.13504 17.4686 2.08301 19.9999 2.08301C22.5312 2.08301 24.5833 4.13504 24.5833 6.66634C24.5833 9.19765 22.5312 11.2497 19.9999 11.2497C17.4686 11.2497 15.4166 9.19765 15.4166 6.66634ZM28.3156 11.9394C30.6836 11.4319 32.9166 13.2371 32.9166 15.6589C32.9166 17.2962 31.8689 18.7499 30.3155 19.2676L26.6901 20.4761C26.4616 20.5523 26.3249 20.5981 26.2235 20.6364C26.1594 20.6607 26.1324 20.6736 26.1259 20.6769C25.9891 20.7633 25.9146 20.9211 25.9349 21.0816C25.9365 21.0887 25.9437 21.1178 25.9657 21.1827C26.0006 21.2853 26.0521 21.4199 26.1386 21.6447L28.2165 27.0475C29.15 29.4745 27.3585 32.083 24.7582 32.083C23.4285 32.083 22.2007 31.3705 21.541 30.216L19.9999 27.5191L18.4588 30.216C17.7991 31.3705 16.5714 32.083 15.2417 32.083C12.6413 32.083 10.8498 29.4745 11.7833 27.0475L13.8613 21.6447C13.9477 21.4199 13.9993 21.2853 14.0341 21.1827C14.0561 21.1178 14.0633 21.0887 14.0649 21.0816C14.0853 20.9211 14.0108 20.7633 13.874 20.6769C13.8674 20.6737 13.8405 20.6607 13.7763 20.6364C13.6749 20.5981 13.5383 20.5523 13.3098 20.4761L9.68429 19.2676C8.13098 18.7499 7.08325 17.2962 7.08325 15.6589C7.08325 13.2371 9.31624 11.4319 11.6843 11.9394L14.8469 12.6171C15.0244 12.6551 15.1073 12.6729 15.1891 12.6898C18.3627 13.3462 21.6371 13.3462 24.8107 12.6898C24.8925 12.6729 24.9755 12.6551 25.153 12.6171L28.3156 11.9394ZM30.4166 15.6589C30.4166 14.8287 29.6511 14.2099 28.8394 14.3839L25.6722 15.0626C25.5009 15.0993 25.4088 15.119 25.3171 15.138C21.8094 15.8635 18.1904 15.8635 14.6827 15.138C14.5911 15.119 14.499 15.0993 14.328 15.0626L11.1604 14.3839C10.3487 14.2099 9.58325 14.8287 9.58325 15.6589C9.58325 16.2201 9.9424 16.7184 10.4749 16.8959L14.1004 18.1044C14.1306 18.1145 14.1609 18.1246 14.1914 18.1347C14.5341 18.2482 14.8901 18.3662 15.1836 18.5474C16.1654 19.1534 16.6977 20.2813 16.5413 21.4244C16.4946 21.7662 16.3594 22.116 16.2292 22.4527C16.2176 22.4826 16.2061 22.5125 16.1946 22.5422L14.1167 27.9449C13.813 28.7345 14.3958 29.583 15.2417 29.583C15.6742 29.583 16.0736 29.3512 16.2882 28.9757L18.9146 24.3795C19.1372 23.99 19.5513 23.7497 19.9999 23.7497C20.4485 23.7497 20.8627 23.99 21.0852 24.3795L23.7116 28.9757C23.9262 29.3512 24.3256 29.583 24.7582 29.583C25.6041 29.583 26.1868 28.7345 25.8832 27.9449L23.8052 22.5422C23.7938 22.5124 23.7822 22.4826 23.7706 22.4526C23.6405 22.116 23.5052 21.7662 23.4585 21.4244C23.3022 20.2813 23.8344 19.1534 24.8162 18.5474C25.1098 18.3662 25.4658 18.2482 25.8084 18.1347C25.8389 18.1246 25.8693 18.1145 25.8995 18.1044L29.525 16.8959C30.0574 16.7184 30.4166 16.2201 30.4166 15.6589ZM8.69389 23.6048C9.004 24.2216 8.75539 24.973 8.1386 25.2831C5.60374 26.5576 4.58325 27.9912 4.58325 29.1663C4.58325 30.4391 5.78993 32.0077 8.72776 33.3297C11.5483 34.599 15.5324 35.4163 19.9999 35.4163C24.4674 35.4163 28.4516 34.599 31.2721 33.3297C34.2099 32.0077 35.4166 30.4391 35.4166 29.1663C35.4166 27.9912 34.3961 26.5576 31.8612 25.2831C31.2444 24.973 30.9958 24.2216 31.3059 23.6048C31.616 22.9881 32.3674 22.7394 32.9842 23.0496C35.7276 24.4289 37.9166 26.4997 37.9166 29.1663C37.9166 32.0357 35.3923 34.2171 32.298 35.6095C29.0863 37.0548 24.7372 37.9163 19.9999 37.9163C15.2626 37.9163 10.9135 37.0548 7.70185 35.6095C4.60753 34.2171 2.08325 32.0357 2.08325 29.1663C2.08325 26.4997 4.27225 24.4289 7.01561 23.0496C7.63239 22.7394 8.38379 22.9881 8.69389 23.6048Z"
		fill="#FFBD59" />
</svg>
	