<svg width="120" height="36" viewBox="0 0 120 36" fill="none" xmlns="http://www.w3.org/2000/svg">
<g clip-path="url(#clip0_440_1124)">
<mask id="mask0_440_1124" style="mask-type:luminance" maskUnits="userSpaceOnUse" x="-4" y="-6" width="131" height="62">
<path d="M-3.41211 55.8271H126.194V-5.57281H-3.41211V55.8271Z" fill="white"/>
</mask>
<g mask="url(#mask0_440_1124)">
<path d="M19.4054 3.25628C19.4054 3.32684 19.4337 3.39034 19.4562 3.45526C19.5056 3.59214 19.5339 3.73467 19.5705 3.87579C19.6199 4.06912 19.6849 4.25821 19.7498 4.44872C19.8104 4.62653 19.8669 4.80292 19.9346 4.97509C20.0235 5.20652 20.1265 5.43231 20.2197 5.66233C20.3326 5.94174 20.4215 6.23244 20.4709 6.5302C20.5146 6.77574 20.5287 7.02551 20.5273 7.27247C20.5273 7.50531 20.5146 7.73674 20.4892 7.96818C20.4723 8.12623 20.4469 8.28428 20.4144 8.44092C20.3834 8.58486 20.3467 8.72738 20.3015 8.86568C20.231 9.083 20.1407 9.29326 20.0574 9.50776C19.953 9.77447 19.8598 10.0468 19.7681 10.3192C19.6679 10.6212 19.5705 10.9246 19.4901 11.2322C19.4308 11.4636 19.38 11.6979 19.3419 11.9378C19.3081 12.1466 19.2827 12.3611 19.3081 12.5714L19.3179 12.666C19.3292 12.6533 19.3306 12.6406 19.3349 12.6279C19.349 12.5531 19.3927 12.4896 19.4308 12.4261C19.5282 12.2652 19.6016 12.0944 19.6891 11.9307C19.8104 11.7007 19.9544 11.4848 20.1026 11.2731C20.2423 11.0699 20.3862 10.8738 20.5414 10.6861C20.7545 10.4307 20.993 10.1978 21.2315 9.96498C21.5081 9.69827 21.7861 9.43156 22.0161 9.12533C22.1869 8.90519 22.3322 8.66529 22.4366 8.40705C22.5142 8.2236 22.5707 8.02886 22.5933 7.82706C22.6201 7.63655 22.6159 7.4404 22.5749 7.2513C22.5523 7.12994 22.5157 7.0114 22.4663 6.89851C22.3929 6.72494 22.2927 6.56406 22.1812 6.40883C22.0302 6.19716 21.8595 6.00101 21.6859 5.80486C21.5476 5.64822 21.4051 5.49017 21.2583 5.33917C21.1369 5.21216 21.0099 5.08939 20.8815 4.96662C20.7813 4.87066 20.6783 4.77611 20.5781 4.67733C20.461 4.56585 20.3509 4.44872 20.2409 4.32877C20.1421 4.2187 20.0433 4.10722 19.9459 3.99574L19.7681 3.78688C19.7201 3.73044 19.6736 3.67258 19.6312 3.61049C19.5959 3.56392 19.5621 3.51594 19.5324 3.46655C19.4958 3.40728 19.4619 3.3466 19.4266 3.28874L19.4054 3.25628ZM113.062 21.3715L113.001 21.4237C112.876 21.5337 112.746 21.6466 112.606 21.7398C112.328 21.9387 112.004 22.07 111.676 22.1815C111.219 22.3381 110.757 22.4538 110.286 22.547C109.764 22.6542 109.232 22.7361 108.756 22.9957C108.264 23.2455 107.835 23.683 107.691 24.2418C107.517 24.7921 107.63 25.4681 108.016 25.8646C108.366 26.2809 108.984 26.4263 109.554 26.4263C110.1 26.4404 110.605 26.3275 111.068 26.1017C111.439 25.9309 111.786 25.684 112.08 25.3862C112.322 25.1492 112.528 24.8768 112.677 24.5748C112.84 24.2446 112.935 23.8777 112.986 23.5094C113.032 23.1905 113.048 22.8673 113.062 22.5441C113.063 22.1984 113.063 21.8513 113.062 21.5027V21.3715ZM113.148 29.1597L113.045 27.352C112.957 27.4832 112.867 27.6131 112.771 27.7387C112.389 28.2283 111.879 28.6249 111.323 28.9142C110.487 29.3784 109.538 29.5929 108.596 29.7383C107.379 29.9358 106.163 30.0177 104.922 29.7651C103.853 29.5802 102.762 29.1442 102.072 28.3596C101.321 27.5877 100.871 26.446 100.854 25.279C100.8 23.9934 101.246 22.674 102.072 21.8442C102.839 20.9721 104.104 20.5798 105.313 20.3568C106.384 20.1452 107.417 20.0661 108.435 19.925C109.349 19.8008 110.255 19.6258 111.226 19.4269C111.792 19.3111 112.386 19.1856 112.77 18.7777C112.911 18.6394 113.028 18.4659 113.092 18.2754C113.158 18.0905 113.176 17.8915 113.147 17.6982C113.123 17.5063 113.056 17.3228 112.949 17.1648C112.828 16.9743 112.647 16.8247 112.449 16.7132C112.077 16.4959 111.635 16.4253 111.203 16.4239C110.796 16.4154 110.398 16.4648 110.014 16.5848C109.73 16.6694 109.456 16.7908 109.219 16.9658C109.008 17.1111 108.824 17.2974 108.676 17.5063C108.552 17.6756 108.453 17.8647 108.378 18.0609C108.323 18.2062 108.282 18.3544 108.258 18.5068C108.24 18.6126 108.231 18.7156 108.223 18.8229L101.42 18.8215C101.424 18.71 101.432 18.5985 101.44 18.4884C101.458 18.2415 101.495 17.9959 101.544 17.7532C101.627 17.344 101.754 16.9418 101.943 16.5678C102.159 16.1106 102.458 15.6957 102.821 15.3429C103.167 14.9944 103.572 14.7107 104.006 14.4793C104.585 14.1632 105.212 13.9417 105.854 13.8076C106.42 13.6792 106.994 13.6199 107.568 13.562C108.776 13.4449 109.99 13.3518 111.203 13.3687C111.996 13.3701 112.79 13.4195 113.578 13.5042C114.379 13.5846 115.176 13.6989 115.958 13.9078C116.555 14.0602 117.146 14.2676 117.659 14.612C118.217 14.9662 118.684 15.477 118.982 16.0725C119.182 16.4437 119.316 16.8487 119.36 17.2621C119.397 17.5359 119.392 17.8125 119.388 18.0891L119.387 27.8826V27.9447C119.388 28.0858 119.395 28.2269 119.408 28.368C119.416 28.4837 119.429 28.5995 119.443 28.7152C119.454 28.8041 119.464 28.8958 119.483 28.9847C119.493 29.0426 119.51 29.1004 119.522 29.1597H113.148ZM61.9338 29.1597L61.8379 27.0754C61.7687 27.208 61.7024 27.3379 61.6276 27.4649C61.2551 28.0844 60.6807 28.5896 60.0429 28.9438C59.0988 29.5083 58.0108 29.7355 56.9087 29.8088C55.6626 29.9133 54.3982 29.8215 53.2622 29.322C52.5693 29.0482 51.9244 28.6263 51.4517 28.0505C50.9789 27.5044 50.6671 26.8129 50.533 26.1059C50.4131 25.5443 50.406 24.9742 50.3961 24.4012V13.7469H56.8268V22.7276C56.8183 23.0917 56.8085 23.4558 56.855 23.8325C56.9002 24.2107 57.0032 24.603 57.2332 24.8867C57.658 25.454 58.5597 25.6163 59.3133 25.5358C59.7832 25.5062 60.1981 25.3848 60.5819 25.1562C61.0759 24.8754 61.519 24.4168 61.6911 23.8862C61.8209 23.5475 61.8379 23.1806 61.852 22.8137V13.7469H68.1472V29.1597H61.9338ZM70.4728 29.1597V13.7469H76.7934V16.3082C76.8598 16.1699 76.9275 16.0288 77.0065 15.8947C77.1688 15.6181 77.3749 15.3683 77.6035 15.1411C77.9252 14.8109 78.2921 14.5245 78.6872 14.2987C79.0894 14.063 79.5269 13.8894 79.9728 13.7511C81.1201 13.3842 82.3309 13.2502 83.5487 13.3687C84.4589 13.4308 85.3705 13.6368 86.141 14.1251C86.6406 14.4214 87.0795 14.8293 87.3843 15.3161C87.6129 15.6675 87.7681 16.0584 87.9248 16.4507C88.1026 16.1007 88.2818 15.7522 88.5118 15.4403C89.0184 14.7531 89.7818 14.2493 90.5919 13.9318C91.6714 13.4774 92.8342 13.3603 93.9956 13.3758C94.9284 13.3772 95.8597 13.4604 96.7333 13.7892C97.4953 14.0531 98.2108 14.5019 98.7315 15.1256C99.1125 15.5589 99.3947 16.0824 99.5358 16.6398C99.6106 16.8952 99.6502 17.1591 99.6657 17.423C99.6812 17.6446 99.6784 17.8661 99.6755 18.0891V29.1597H93.3535V20.4528C93.345 20.3625 93.3394 20.2707 93.3253 20.1818C93.2999 20.0083 93.2533 19.8403 93.1785 19.6795C93.084 19.4678 92.9457 19.2773 92.7735 19.1249C92.5971 18.964 92.3925 18.8469 92.1724 18.7622C91.8591 18.638 91.5218 18.5844 91.1845 18.5675C90.8924 18.5534 90.606 18.5661 90.3167 18.607C90.1008 18.6366 89.8863 18.6832 89.6774 18.7566C89.4686 18.8285 89.2654 18.9287 89.0861 19.0585C88.8857 19.1968 88.7094 19.3704 88.5711 19.575C88.4511 19.7486 88.3622 19.9476 88.3298 20.1564C88.3142 20.2397 88.3086 20.323 88.3029 20.4076V29.1597H81.8468V20.2806C81.844 20.1734 81.8426 20.0661 81.8313 19.9617C81.8073 19.7232 81.7382 19.4833 81.6027 19.29C81.4235 19.0148 81.1159 18.8299 80.7983 18.7227C80.4808 18.6042 80.1506 18.5661 79.819 18.5463C79.5466 18.5294 79.2701 18.528 78.9949 18.5463C78.6689 18.5675 78.3415 18.6169 78.031 18.7269C77.777 18.8102 77.5329 18.9358 77.3325 19.115C77.1251 19.2914 76.9614 19.5256 76.8753 19.7839C76.8245 19.9222 76.7949 20.0689 76.7934 20.2157V20.3187V29.1597H70.4728ZM36.5653 13.7469H42.9395V16.8966C43.0834 16.5481 43.226 16.1981 43.4137 15.8707C43.6437 15.4784 43.9414 15.1186 44.2928 14.8293C44.6823 14.4962 45.1395 14.2507 45.6151 14.0588C46.1076 13.8542 46.6212 13.7074 47.142 13.6114C47.6669 13.5112 48.2018 13.4619 48.7366 13.4661C48.9045 13.4647 49.0724 13.4675 49.239 13.4731V19.6428L49.1938 19.6273C48.9271 19.5426 48.6519 19.4847 48.3767 19.4424C48.0522 19.3888 47.7262 19.3563 47.3988 19.3366C46.998 19.3126 46.5958 19.3097 46.2007 19.369C45.9086 19.4071 45.6207 19.4791 45.3413 19.5764C44.9899 19.6978 44.6498 19.8601 44.3436 20.0661C44.0586 20.251 43.8017 20.4725 43.5717 20.7266C43.4066 20.9044 43.257 21.0991 43.1639 21.3192C43.0736 21.5239 43.0369 21.7482 42.9748 21.9641L42.9395 22.0742V29.1597H36.5653V13.7469ZM7.62783 18.8412V13.5409L34.0477 13.5254C33.9673 13.2431 33.8911 12.9609 33.8022 12.6815C33.3873 11.3536 32.7692 10.0849 32.0001 8.91648C31.08 7.45592 29.9257 6.14636 28.5893 5.05411C27.2671 3.93082 25.7599 3.02768 24.147 2.39124C22.9136 1.88039 21.6167 1.52478 20.2987 1.34415C19.7568 1.2623 19.2135 1.2115 18.6688 1.1861C18.1142 1.15929 17.5568 1.15929 17.0022 1.1861C15.481 1.25383 13.9654 1.52901 12.5232 2.02292C11.1938 2.4491 9.92944 3.05872 8.75958 3.82216C7.30184 4.74648 5.99228 5.90364 4.89862 7.24001C3.77957 8.56228 2.87924 10.0652 2.23857 11.6824C1.51746 13.4209 1.09835 15.2936 1.03484 17.1648C1.00521 17.7208 1.00521 18.2782 1.03484 18.8356C1.10681 20.3554 1.37635 21.8738 1.86884 23.316C2.29502 24.6468 2.90746 25.9126 3.6695 27.0839C4.59522 28.5402 5.74815 29.8512 7.0817 30.9462C8.40397 32.0709 9.9111 32.9769 11.5241 33.6105C12.7588 34.12 14.0557 34.4671 15.3723 34.6534C15.9128 34.7352 16.4561 34.7917 17.0022 34.8128C17.283 34.8255 17.5639 34.8298 17.8433 34.834C18.1185 34.8298 18.3936 34.8255 18.6688 34.8128C20.1872 34.7479 21.6986 34.4671 23.1493 33.9774C24.4842 33.5569 25.7684 32.9614 26.9129 32.174C28.2041 31.3202 29.3203 30.2294 30.4365 29.1399C30.2573 29.2373 30.0781 29.3375 29.8975 29.4335C29.3245 29.7383 28.7361 30.0177 28.1251 30.2322C27.3419 30.5215 26.5191 30.6993 25.6908 30.8023C24.3939 30.9787 23.0815 30.973 21.7762 30.8023C20.7418 30.6838 19.7103 30.4636 18.7775 30.005C18.2285 29.7524 17.7134 29.4179 17.2774 28.9974C16.854 28.6009 16.4998 28.1253 16.2543 27.5975C16.0708 27.2208 15.9424 26.8129 15.8832 26.398C15.8479 26.1906 15.8324 25.9803 15.8324 25.7715V18.8412H7.62783ZM22.6102 18.9471V23.4812C22.6102 23.5461 22.6116 23.6096 22.613 23.6773C22.6243 23.9807 22.6822 24.2926 22.8078 24.5706C22.8953 24.7794 23.0194 24.9713 23.1761 25.1336C23.3341 25.303 23.5275 25.4384 23.7377 25.5358C23.9 25.6148 24.0722 25.6685 24.2457 25.7009C24.3234 25.7179 24.3996 25.7277 24.4772 25.7334L24.5195 25.7348L24.7989 25.7884C25.3098 25.8787 25.8319 25.9211 26.3512 25.9182C26.8254 25.9211 27.2995 25.8872 27.7694 25.8251C28.3297 25.756 28.8885 25.6459 29.4374 25.5019C29.9412 25.3764 30.438 25.2197 30.9234 25.0476C31.4131 24.874 31.8929 24.6849 32.3741 24.4746C32.7226 24.3222 33.074 24.1599 33.3548 23.9087C33.4833 23.8001 33.5947 23.6759 33.7076 23.5503C33.9786 22.7234 34.2495 21.8978 34.4033 21.0483C34.5275 20.3568 34.5727 19.6484 34.6207 18.9428L22.6102 18.9471ZM0.474609 17.9988C0.478843 17.7123 0.484488 17.4272 0.495777 17.1422C0.571981 15.2117 0.98263 13.277 1.73619 11.4862C2.38251 9.81257 3.32094 8.26311 4.48092 6.8971C5.61268 5.51838 6.95893 4.3203 8.46465 3.37059C9.66979 2.58316 10.9779 1.95801 12.3482 1.50926C13.8412 1.00124 15.4076 0.706303 16.9782 0.645622C17.5512 0.61599 18.1227 0.61599 18.6928 0.645622C19.2573 0.673847 19.8175 0.727467 20.3777 0.810726C21.7339 1.00406 23.0717 1.36391 24.3431 1.88886C26.0083 2.54082 27.5648 3.4736 28.9308 4.63358C30.3124 5.76111 31.5062 7.11442 32.4531 8.62155C33.2377 9.82951 33.8657 11.1391 34.3116 12.5079C34.9114 14.269 35.2134 16.1304 35.1992 17.9988C35.2204 20.2256 34.7957 22.4623 33.9362 24.5141C33.2815 26.1835 32.3473 27.7344 31.1915 29.1032C30.0612 30.482 28.7121 31.68 27.2078 32.6298C26.0012 33.4172 24.6945 34.0409 23.3214 34.4897C21.8298 34.9963 20.2648 35.294 18.6928 35.3547C18.1227 35.3844 17.5498 35.3844 16.9782 35.3547C16.4152 35.3265 15.8535 35.2715 15.2961 35.1882C13.9386 34.9949 12.6008 34.6364 11.3279 34.1129C9.66132 33.4609 8.10903 32.5253 6.7402 31.3639C5.36008 30.2364 4.16482 28.8859 3.21792 27.3802C2.43331 26.1737 1.8124 24.8627 1.35941 23.4924C0.847158 21.998 0.538112 20.4288 0.495777 18.8582C0.481666 18.5717 0.477432 18.2852 0.474609 17.9988ZM18.5757 1.28347L18.57 1.64473C18.5686 1.88886 18.5757 2.13299 18.5898 2.37712C18.6067 2.70028 18.6321 3.02062 18.673 3.34237C18.7069 3.62601 18.7507 3.90965 18.8142 4.18624C18.8904 4.5348 18.9976 4.8749 19.119 5.21216C19.2403 5.55508 19.3772 5.89376 19.4478 6.24937C19.5056 6.50197 19.5339 6.76727 19.531 7.02975C19.531 7.30493 19.5 7.5801 19.4562 7.85105C19.4153 8.10929 19.3575 8.36189 19.294 8.61449C19.1966 9.00821 19.0837 9.3991 18.9835 9.7914C18.8678 10.2416 18.769 10.6946 18.7196 11.1588C18.6829 11.4566 18.666 11.76 18.6801 12.0535C18.6857 12.2666 18.7097 12.4769 18.7295 12.6998C18.7408 12.8212 18.7492 12.9468 18.7972 13.0484C18.8085 13.078 18.824 13.1048 18.8226 13.1458L18.8269 13.2177C18.7732 13.1655 18.7492 13.0935 18.7196 13.0258C18.6547 12.8833 18.5658 12.7605 18.4783 12.6349C18.3598 12.4684 18.2469 12.2991 18.1255 12.1368C18.0183 11.99 17.904 11.8503 17.7798 11.7148C17.6485 11.5709 17.5088 11.4312 17.3621 11.3028L17.2859 11.2336L17.2054 11.1744L17.0488 11.0459C16.9204 10.9443 16.792 10.8441 16.6649 10.7383C16.4998 10.6028 16.3404 10.4575 16.1964 10.2952C16.0469 10.1329 15.9142 9.95228 15.8098 9.75472C15.7138 9.58397 15.6419 9.3991 15.5868 9.21142C15.5007 8.92636 15.4584 8.63142 15.4471 8.33226C15.4274 7.97946 15.4513 7.62244 15.5487 7.28517C15.6094 7.05374 15.7039 6.83077 15.8225 6.62333C15.9241 6.44129 16.0426 6.26913 16.1753 6.10967C16.2741 5.98407 16.3827 5.86553 16.4871 5.74417C16.5718 5.6468 16.6565 5.54661 16.7355 5.4436C16.8315 5.32082 16.9204 5.19241 17.0121 5.0654C17.1419 4.88477 17.2689 4.70414 17.3846 4.51787C17.5413 4.2695 17.6782 4.00985 17.8024 3.74314C17.9463 3.43832 18.0691 3.12505 18.1777 2.80471C18.3217 2.38418 18.436 1.95518 18.5277 1.52055L18.5757 1.28347Z" fill="#9A9AAC"/>
</g>
</g>
<defs>
<clipPath id="clip0_440_1124">
<rect width="120" height="35.7143" fill="white" transform="translate(0 0.142578)"/>
</clipPath>
</defs>
</svg>
