<svg width="40" height="40" viewBox="0 0 40 40" fill="none" xmlns="http://www.w3.org/2000/svg">
<g id="twemoji:flag-germany" clip-path="url(#clip0_255_497)">
<path id="Vector" d="M0 30.0001C0 31.1788 0.468253 32.3093 1.30175 33.1428C2.13524 33.9763 3.2657 34.4446 4.44444 34.4446H35.5556C36.7343 34.4446 37.8648 33.9763 38.6983 33.1428C39.5317 32.3093 40 31.1788 40 30.0001V25.5557H0V30.0001Z" fill="#FFCD05"/>
<path id="Vector_2" d="M0 15.5557H40V25.5557H0V15.5557Z" fill="#ED1F24"/>
<path id="Vector_3" d="M35.5556 5.55566H4.44444C3.2657 5.55566 2.13524 6.02392 1.30175 6.85741C0.468253 7.69091 0 8.82137 0 10.0001L0 15.5557H40V10.0001C40 8.82137 39.5317 7.69091 38.6983 6.85741C37.8648 6.02392 36.7343 5.55566 35.5556 5.55566Z" fill="#141414"/>
</g>
<defs>
<clipPath id="clip0_255_497">
<rect width="40" height="40" fill="white"/>
</clipPath>
</defs>
</svg>
